<svg width="117" height="16" viewBox="0 0 117 16" fill="none" xmlns="http://www.w3.org/2000/svg">
<path d="M0.786849 0H13.2078L12.421 3.90241H0L0.786849 0Z" fill="white"/>
<path d="M6.47064 6.02686H17.812L16.9795 9.97263H5.63672L6.47064 6.02686Z" fill="white"/>
<path d="M5.18237 12.0974H14.3699L13.5332 15.9998H4.3457L5.18237 12.0974Z" fill="white"/>
<path fill-rule="evenodd" clip-rule="evenodd" d="M39.7507 0L36.5593 15.9999H32.1369L27.5549 8.54851L26.0731 15.9999H20.8301L24.0215 0H28.4439L33.0259 7.45137L34.5076 0H39.7507ZM46.902 4.06854L46.5059 5.90573H52.4076L51.5869 9.97427H45.708L44.5312 15.9999H39.1514L42.3428 0H54.7099L53.8893 4.06854H46.902ZM55.0729 4.18283H59.7461L57.3981 15.9999H62.778L65.1259 4.18283H69.7991L70.6426 0H55.9164L55.0729 4.18283ZM72.2265 15.9999C71.4386 15.9999 70.6983 15.9174 70.0056 15.7525C69.3129 15.579 68.7415 15.3533 68.2912 15.0756L69.4731 12.8104C70.4515 13.3746 71.4732 13.6566 72.5382 13.6566C72.9278 13.6566 73.2265 13.6089 73.4343 13.5134C73.6421 13.4179 73.746 13.2878 73.746 13.1229C73.746 12.9666 73.6378 12.8408 73.4213 12.7453C73.2135 12.6499 72.8802 12.5457 72.4213 12.4329C71.8152 12.2767 71.313 12.1205 70.9147 11.9642C70.5164 11.7993 70.1658 11.552 69.8627 11.2222C69.5683 10.8837 69.4211 10.4411 69.4211 9.89435C69.4211 9.20872 69.603 8.60988 69.9666 8.09783C70.3389 7.5771 70.8714 7.17788 71.5641 6.90015C72.2568 6.61375 73.075 6.47055 74.0188 6.47055C74.6941 6.47055 75.3219 6.53998 75.902 6.67884C76.4907 6.80903 76.9973 6.99996 77.4215 7.25165L76.3176 9.49078C75.9626 9.26513 75.5686 9.09589 75.1357 8.98307C74.7114 8.87025 74.2742 8.81383 73.824 8.81383C73.3997 8.81383 73.0707 8.87459 72.8369 8.99609C72.6031 9.11759 72.4862 9.26079 72.4862 9.42569C72.4862 9.59059 72.5901 9.72077 72.7979 9.81624C73.0144 9.9117 73.3651 10.0159 73.8499 10.1287C74.4387 10.2675 74.9322 10.4151 75.3305 10.5713C75.7375 10.7275 76.0881 10.9705 76.3825 11.3003C76.6769 11.6301 76.8241 12.0641 76.8241 12.6021C76.8241 13.2791 76.6379 13.8736 76.2656 14.3856C75.8933 14.8977 75.3608 15.2969 74.6681 15.5833C73.9755 15.861 73.1616 15.9999 72.2265 15.9999ZM80.3367 9.06118H77.6743L78.1548 6.67884H86.5448L86.0643 9.06118H83.4018L82.0641 15.7916H78.999L80.3367 9.06118ZM88.2221 14.2034H91.6898L91.9885 15.7916H95.0406L92.8846 6.67884H89.8715L84.079 15.7916H87.3129L88.2221 14.2034ZM90.8196 9.66002L91.2612 11.9903H89.4819L90.8196 9.66002ZM100.572 15.9999C99.6456 15.9999 98.8273 15.8307 98.1173 15.4922C97.416 15.145 96.8705 14.6634 96.4809 14.0472C96.0999 13.431 95.9094 12.7236 95.9094 11.9252C95.9094 10.8664 96.1519 9.92472 96.6367 9.10023C97.1303 8.27575 97.81 7.63351 98.6758 7.17354C99.5503 6.70488 100.542 6.47055 101.65 6.47055C102.524 6.47055 103.299 6.63111 103.975 6.95223C104.65 7.26466 105.152 7.71162 105.481 8.2931L103.273 10.0245C102.866 9.31287 102.26 8.95703 101.455 8.95703C100.979 8.95703 100.555 9.0742 100.182 9.30853C99.8101 9.54285 99.52 9.87265 99.3122 10.2979C99.1044 10.7145 99.0005 11.1918 99.0005 11.7299C99.0005 12.268 99.1693 12.7019 99.507 13.0317C99.8534 13.3529 100.308 13.5134 100.871 13.5134C101.641 13.5134 102.317 13.1619 102.897 12.4589L104.702 14.1904C104.174 14.8413 103.572 15.3056 102.897 15.5833C102.23 15.861 101.455 15.9999 100.572 15.9999ZM114.626 15.7916L111.665 10.8317L116.224 6.67884H112.704L109.25 9.90736L109.899 6.67884H106.886L105.068 15.7916H108.081L108.509 13.6176L109.366 12.8234L111.211 15.7916H114.626Z" fill="white"/>
</svg>
