<svg width="224" height="80" viewBox="0 0 224 80" fill="none" xmlns="http://www.w3.org/2000/svg">
<path d="M58.6638 65.3718C47.646 65.1034 36.6283 64.834 25.6097 64.5656C36.6274 64.2886 47.6451 64.0116 58.6638 63.7356V65.3718Z" fill="url(#paint0_linear_870_86)"/>
<path d="M166.946 65.3718C177.964 65.1034 188.981 64.834 200 64.5656C188.982 64.2886 177.965 64.0116 166.946 63.7355V65.3718Z" fill="url(#paint1_linear_870_86)"/>
<path d="M58.6638 65.3718C47.646 65.1034 36.6283 64.834 25.6097 64.5656C36.6274 64.2886 47.6451 64.0116 58.6638 63.7356V65.3718Z" fill="url(#paint2_linear_870_86)"/>
<path d="M166.946 65.3718C177.964 65.1034 188.981 64.834 200 64.5656C188.982 64.2886 177.965 64.0116 166.946 63.7355V65.3718Z" fill="url(#paint3_linear_870_86)"/>
<path d="M67.7431 62.065C67.5728 61.8584 67.338 61.6814 67.0387 61.5339C66.7394 61.3863 66.4227 61.3121 66.0875 61.3121C65.628 61.3121 65.2624 61.4348 64.9889 61.6795C64.7154 61.9251 64.5792 62.2116 64.5792 62.5409C64.5792 62.8417 64.6786 63.1026 64.8775 63.3224C65.0755 63.5423 65.325 63.706 65.6243 63.8117L67.2183 64.2886C67.5995 64.4114 67.9116 64.6256 68.1547 64.9321C68.3969 65.2386 68.5185 65.6231 68.5185 66.0858C68.5185 66.6036 68.315 67.0529 67.907 67.4317C67.5 67.8106 66.9429 68 66.2357 68C65.663 68 65.162 67.862 64.7311 67.5859C64.3002 67.3099 63.9668 66.9577 63.7292 66.5284L64.232 66.1857C64.4484 66.5646 64.7412 66.8568 65.1105 67.0633C65.4788 67.2699 65.849 67.3727 66.221 67.3727C66.7882 67.3727 67.2155 67.2394 67.501 66.971C67.7873 66.7035 67.9301 66.3999 67.9301 66.0601C67.9301 65.7754 67.8463 65.527 67.6787 65.3119C67.5111 65.0977 67.2772 64.9483 66.9788 64.8645L65.4862 64.4047C65.0534 64.2543 64.697 64.0173 64.4189 63.6946C64.1408 63.371 64.0009 62.9845 64.0009 62.5324C64.0009 62.0307 64.1915 61.5976 64.5736 61.2331C64.9549 60.8685 65.4604 60.6857 66.0902 60.6857C66.57 60.6857 66.9954 60.7847 67.3665 60.9827C67.7376 61.1807 68.0396 61.4215 68.2717 61.7061L67.7431 62.065Z" fill="#3C2517"/>
<path d="M80.0123 64.3381C80.0123 65.3528 79.6826 66.2162 79.0224 66.9291C78.3622 67.6421 77.5656 67.999 76.6319 67.999C75.6936 67.999 74.8943 67.6421 74.2341 66.9291C73.5738 66.2162 73.2442 65.3518 73.2442 64.3381C73.2442 63.33 73.5738 62.4686 74.2341 61.7556C74.8943 61.0427 75.6936 60.6857 76.6319 60.6857C77.5656 60.6857 78.3622 61.0427 79.0224 61.7556C79.6826 62.4686 80.0123 63.33 80.0123 64.3381ZM76.6319 61.3121C75.8529 61.3121 75.1908 61.6071 74.6438 62.1983C74.0969 62.7894 73.8234 63.5023 73.8234 64.3381C73.8234 65.1796 74.0969 65.8954 74.6438 66.4865C75.1908 67.0776 75.8529 67.3727 76.6319 67.3727C77.4054 67.3727 78.0656 67.0776 78.6126 66.4865C79.1596 65.8963 79.4322 65.1796 79.4322 64.3381C79.4322 63.5023 79.1587 62.7894 78.6126 62.1983C78.0656 61.6081 77.4054 61.3121 76.6319 61.3121Z" fill="#3C2517"/>
<path d="M90.0456 66.4618L90.4784 66.8796C90.4628 66.8968 90.4471 66.9129 90.4324 66.9301C89.7721 67.643 88.9756 68 88.0419 68C87.1036 68 86.3043 67.643 85.6441 66.9301C84.9838 66.2171 84.6542 65.3528 84.6542 64.339C84.6542 63.331 84.9838 62.4695 85.6441 61.7566C86.3043 61.0436 87.1036 60.6867 88.0419 60.6867C88.9756 60.6867 89.7721 61.0436 90.4324 61.7566C90.4582 61.7842 90.4812 61.8099 90.5024 61.8318L90.0843 62.2668C90.064 62.2449 90.0429 62.222 90.0226 62.2002C89.4756 61.61 88.8154 61.314 88.0419 61.314C87.2629 61.314 86.6008 61.609 86.0538 62.2002C85.5069 62.7913 85.2334 63.5042 85.2334 64.34C85.2334 65.1815 85.5069 65.8973 86.0538 66.4884C86.6008 67.0795 87.2629 67.3746 88.0419 67.3746C88.8154 67.3746 89.4756 67.0795 90.0226 66.4884C90.0281 66.4808 90.0355 66.4732 90.0456 66.4618Z" fill="#3C2517"/>
<path d="M96.0642 60.8942V67.7896H95.484V60.8942H96.0642Z" fill="#3C2517"/>
<path d="M106.121 66.7454H101.852L101.403 67.7906H100.761L103.739 60.8951H104.235L107.221 67.7906H106.571L106.121 66.7454ZM105.851 66.1191L103.986 61.8146L102.121 66.1191H105.851Z" fill="#3C2517"/>
<path d="M111.924 60.8942H112.504V67.1633H115.598V67.7906H111.923L111.924 60.8942Z" fill="#3C2517"/>
<path d="M132.013 66.4618L132.446 66.8796C132.43 66.8968 132.415 66.9129 132.4 66.9301C131.74 67.643 130.943 68 130.01 68C129.071 68 128.271 67.643 127.612 66.9301C126.952 66.2171 126.622 65.3528 126.622 64.339C126.622 63.331 126.952 62.4695 127.612 61.7566C128.272 61.0436 129.071 60.6867 130.01 60.6867C130.943 60.6867 131.74 61.0436 132.4 61.7566C132.426 61.7842 132.449 61.8099 132.47 61.8318L132.052 62.2668C132.032 62.2449 132.011 62.222 131.99 62.2002C131.443 61.61 130.783 61.314 130.01 61.314C129.231 61.314 128.569 61.609 128.022 62.2002C127.475 62.7913 127.202 63.5042 127.202 64.34C127.202 65.1815 127.475 65.8973 128.022 66.4884C128.569 67.0795 129.231 67.3746 130.01 67.3746C130.783 67.3746 131.443 67.0795 131.99 66.4884C131.995 66.4808 132.003 66.4732 132.013 66.4618Z" fill="#3C2517"/>
<path d="M137.452 60.8942H138.032V67.1633H141.127V67.7906H137.452V60.8942Z" fill="#3C2517"/>
<path d="M145.381 65.2833V60.8951H145.961V65.2833C145.961 65.863 146.149 66.3561 146.526 66.7626C146.902 67.169 147.359 67.3727 147.895 67.3727C148.431 67.3727 148.888 67.169 149.264 66.7626C149.641 66.3561 149.829 65.863 149.829 65.2833V60.8951H150.409V65.2833C150.409 66.0353 150.164 66.6769 149.674 67.2061C149.184 67.7354 148.591 68 147.895 68C147.199 68 146.606 67.7354 146.116 67.2061C145.626 66.6759 145.381 66.0353 145.381 65.2833Z" fill="#3C2517"/>
<path d="M155.631 60.8942H158.338C158.818 60.8942 159.228 61.0779 159.568 61.4463C159.909 61.8137 160.078 62.2573 160.078 62.7751C160.078 63.2929 159.908 63.7365 159.568 64.1039C159.511 64.1649 159.452 64.221 159.391 64.2715C159.525 64.3552 159.648 64.458 159.762 64.5808C160.102 64.9482 160.272 65.3918 160.272 65.9097C160.272 66.4275 160.101 66.8711 159.762 67.2385C159.421 67.6059 159.011 67.7896 158.531 67.7896H155.63L155.631 60.8942ZM156.219 61.5215V64.0287H158.339C158.658 64.0287 158.932 63.9059 159.158 63.6613C159.385 63.4157 159.499 63.1206 159.499 62.7751C159.499 62.4296 159.386 62.1345 159.158 61.8889C158.931 61.6433 158.658 61.5215 158.339 61.5215H156.219ZM156.219 64.656V67.1633H158.532C158.852 67.1633 159.125 67.0405 159.352 66.7959C159.578 66.5503 159.693 66.2552 159.693 65.9097C159.693 65.5641 159.579 65.269 159.352 65.0234C159.124 64.7779 158.852 64.656 158.532 64.656H156.219Z" fill="#3C2517"/>
<path d="M67.7431 62.065C67.5728 61.8584 67.338 61.6814 67.0387 61.5339C66.7394 61.3863 66.4227 61.3121 66.0875 61.3121C65.628 61.3121 65.2624 61.4348 64.9889 61.6795C64.7154 61.9251 64.5792 62.2116 64.5792 62.5409C64.5792 62.8417 64.6786 63.1026 64.8775 63.3224C65.0755 63.5423 65.325 63.706 65.6243 63.8117L67.2183 64.2886C67.5995 64.4114 67.9116 64.6256 68.1547 64.9321C68.3969 65.2386 68.5185 65.6231 68.5185 66.0858C68.5185 66.6036 68.315 67.0529 67.907 67.4317C67.5 67.8106 66.9429 68 66.2357 68C65.663 68 65.162 67.862 64.7311 67.5859C64.3002 67.3099 63.9668 66.9577 63.7292 66.5284L64.232 66.1857C64.4484 66.5646 64.7412 66.8568 65.1105 67.0633C65.4788 67.2699 65.849 67.3727 66.221 67.3727C66.7882 67.3727 67.2155 67.2394 67.501 66.971C67.7873 66.7035 67.9301 66.3999 67.9301 66.0601C67.9301 65.7754 67.8463 65.527 67.6787 65.3119C67.5111 65.0977 67.2772 64.9483 66.9788 64.8645L65.4862 64.4047C65.0534 64.2543 64.697 64.0173 64.4189 63.6946C64.1408 63.371 64.0009 62.9845 64.0009 62.5324C64.0009 62.0307 64.1915 61.5976 64.5736 61.2331C64.9549 60.8685 65.4604 60.6857 66.0902 60.6857C66.57 60.6857 66.9954 60.7847 67.3665 60.9827C67.7376 61.1807 68.0396 61.4215 68.2717 61.7061L67.7431 62.065Z" fill="white"/>
<path d="M80.0123 64.3381C80.0123 65.3528 79.6826 66.2162 79.0224 66.9291C78.3622 67.6421 77.5656 67.999 76.6319 67.999C75.6936 67.999 74.8943 67.6421 74.2341 66.9291C73.5738 66.2162 73.2442 65.3518 73.2442 64.3381C73.2442 63.33 73.5738 62.4686 74.2341 61.7556C74.8943 61.0427 75.6936 60.6857 76.6319 60.6857C77.5656 60.6857 78.3622 61.0427 79.0224 61.7556C79.6826 62.4686 80.0123 63.33 80.0123 64.3381ZM76.6319 61.3121C75.8529 61.3121 75.1908 61.6071 74.6438 62.1983C74.0969 62.7894 73.8234 63.5023 73.8234 64.3381C73.8234 65.1796 74.0969 65.8954 74.6438 66.4865C75.1908 67.0776 75.8529 67.3727 76.6319 67.3727C77.4054 67.3727 78.0656 67.0776 78.6126 66.4865C79.1596 65.8963 79.4322 65.1796 79.4322 64.3381C79.4322 63.5023 79.1587 62.7894 78.6126 62.1983C78.0656 61.6081 77.4054 61.3121 76.6319 61.3121Z" fill="white"/>
<path d="M90.0456 66.4618L90.4784 66.8796C90.4628 66.8968 90.4471 66.9129 90.4324 66.9301C89.7721 67.643 88.9756 68 88.0419 68C87.1036 68 86.3043 67.643 85.6441 66.9301C84.9838 66.2171 84.6542 65.3528 84.6542 64.339C84.6542 63.331 84.9838 62.4695 85.6441 61.7566C86.3043 61.0436 87.1036 60.6867 88.0419 60.6867C88.9756 60.6867 89.7721 61.0436 90.4324 61.7566C90.4582 61.7842 90.4812 61.8099 90.5024 61.8318L90.0843 62.2668C90.064 62.2449 90.0429 62.222 90.0226 62.2002C89.4756 61.61 88.8154 61.314 88.0419 61.314C87.2629 61.314 86.6008 61.609 86.0538 62.2002C85.5069 62.7913 85.2334 63.5042 85.2334 64.34C85.2334 65.1815 85.5069 65.8973 86.0538 66.4884C86.6008 67.0795 87.2629 67.3746 88.0419 67.3746C88.8154 67.3746 89.4756 67.0795 90.0226 66.4884C90.0281 66.4808 90.0355 66.4732 90.0456 66.4618Z" fill="white"/>
<path d="M96.0642 60.8942V67.7896H95.484V60.8942H96.0642Z" fill="white"/>
<path d="M106.121 66.7454H101.852L101.403 67.7906H100.761L103.739 60.8951H104.235L107.221 67.7906H106.571L106.121 66.7454ZM105.851 66.1191L103.986 61.8146L102.121 66.1191H105.851Z" fill="white"/>
<path d="M111.924 60.8942H112.504V67.1633H115.598V67.7906H111.923L111.924 60.8942Z" fill="white"/>
<path d="M132.013 66.4618L132.446 66.8796C132.43 66.8968 132.415 66.9129 132.4 66.9301C131.74 67.643 130.943 68 130.01 68C129.071 68 128.271 67.643 127.612 66.9301C126.952 66.2171 126.622 65.3528 126.622 64.339C126.622 63.331 126.952 62.4695 127.612 61.7566C128.272 61.0436 129.071 60.6867 130.01 60.6867C130.943 60.6867 131.74 61.0436 132.4 61.7566C132.426 61.7842 132.449 61.8099 132.47 61.8318L132.052 62.2668C132.032 62.2449 132.011 62.222 131.99 62.2002C131.443 61.61 130.783 61.314 130.01 61.314C129.231 61.314 128.569 61.609 128.022 62.2002C127.475 62.7913 127.202 63.5042 127.202 64.34C127.202 65.1815 127.475 65.8973 128.022 66.4884C128.569 67.0795 129.231 67.3746 130.01 67.3746C130.783 67.3746 131.443 67.0795 131.99 66.4884C131.995 66.4808 132.003 66.4732 132.013 66.4618Z" fill="white"/>
<path d="M137.452 60.8942H138.032V67.1633H141.127V67.7906H137.452V60.8942Z" fill="white"/>
<path d="M145.381 65.2833V60.8951H145.961V65.2833C145.961 65.863 146.149 66.3561 146.526 66.7626C146.902 67.169 147.359 67.3727 147.895 67.3727C148.431 67.3727 148.888 67.169 149.264 66.7626C149.641 66.3561 149.829 65.863 149.829 65.2833V60.8951H150.409V65.2833C150.409 66.0353 150.164 66.6769 149.674 67.2061C149.184 67.7354 148.591 68 147.895 68C147.199 68 146.606 67.7354 146.116 67.2061C145.626 66.6759 145.381 66.0353 145.381 65.2833Z" fill="white"/>
<path d="M155.631 60.8942H158.338C158.818 60.8942 159.228 61.0779 159.568 61.4463C159.909 61.8137 160.078 62.2573 160.078 62.7751C160.078 63.2929 159.908 63.7365 159.568 64.1039C159.511 64.1649 159.452 64.221 159.391 64.2715C159.525 64.3552 159.648 64.458 159.762 64.5808C160.102 64.9482 160.272 65.3918 160.272 65.9097C160.272 66.4275 160.101 66.8711 159.762 67.2385C159.421 67.6059 159.011 67.7896 158.531 67.7896H155.63L155.631 60.8942ZM156.219 61.5215V64.0287H158.339C158.658 64.0287 158.932 63.9059 159.158 63.6613C159.385 63.4157 159.499 63.1206 159.499 62.7751C159.499 62.4296 159.386 62.1345 159.158 61.8889C158.931 61.6433 158.658 61.5215 158.339 61.5215H156.219ZM156.219 64.656V67.1633H158.532C158.852 67.1633 159.125 67.0405 159.352 66.7959C159.578 66.5503 159.693 66.2552 159.693 65.9097C159.693 65.5641 159.579 65.269 159.352 65.0234C159.124 64.7779 158.852 64.656 158.532 64.656H156.219Z" fill="white"/>
<path d="M40.8724 38.7039H41.5907C46.3311 38.7039 48.7041 36.1499 48.7041 31.0412C48.7041 30.2673 48.6488 29.5515 48.5402 28.8947C47.4775 29.2383 46.4103 29.5781 45.3651 29.9065C45.0447 30.0065 44.7224 30.1055 44.4029 30.2054C44.471 30.5091 44.5032 30.8289 44.5032 31.1621C44.5032 32.2672 44.1377 33.2134 43.4075 34.0044C42.6745 34.7935 41.7923 35.1885 40.7582 35.1885C35.3355 35.5988 29.9127 36.0091 24.4899 36.4193V50.4377L28.6521 48.6387V38.7039H35.9911L43.6727 48.6387L49.9527 50.4377L40.8724 38.7039Z" fill="white"/>
<path d="M73.5968 23.3747L85.2877 50.4368L80.3695 48.6377L78.4017 44.141H64.6298L62.7007 48.6377L57.7448 50.4368L69.4356 23.3747H73.5968ZM66.1437 40.5039H76.8888L71.5158 28.1579L66.1437 40.5039Z" fill="white"/>
<path d="M114.723 46.8396L116.388 50.4368H101.367C95.5153 50.4368 92.5899 47.2756 92.5899 40.9532V32.8593C92.5899 26.5369 95.5153 23.3757 101.367 23.3757H115.972L114.307 26.9728H102.2C98.5679 26.9728 96.7511 28.9356 96.7511 32.8593V40.9532C96.7511 44.8778 98.567 46.8396 102.2 46.8396H114.723Z" fill="white"/>
<path d="M128.673 25.0072C128.673 25.0072 126.638 24.3666 126.188 24.2247C125.923 24.1419 125.659 24.0591 125.392 23.9763V48.6387L129.554 50.4377V25.2832C129.261 25.1919 128.967 25.1005 128.673 25.0072Z" fill="white"/>
<path d="M160.993 25.1738L165.155 23.3747V50.3968H160.993L144.308 28.9765V48.5977L140.146 50.3968V23.3747H144.308L160.993 44.795V25.1738Z" fill="white"/>
<path d="M195.8 38.7048L200 36.9057V50.4368H184.109C178.257 50.4368 175.332 47.2756 175.332 40.9532V32.8593C175.332 26.5369 178.257 23.3757 184.109 23.3757H199.545L197.88 26.9728H184.941C181.309 26.9728 179.492 28.9356 179.492 32.8593V40.9532C179.492 44.8778 181.308 46.8396 184.941 46.8396H195.799L195.8 38.7048Z" fill="white"/>
<path d="M33.3446 18.6619C35.0786 18.6619 36.8125 18.6619 38.5464 18.6619C39.0344 18.6619 39.2131 18.8504 39.2131 19.3606C39.2131 20.2992 39.214 21.2368 39.2131 22.1753C39.2131 22.5494 39.0989 22.7112 38.7471 22.8293C37.4865 23.2538 36.2259 23.6755 34.9653 24.101C33.9321 24.4494 32.9008 24.8025 31.8676 25.149C31.3731 25.3146 30.8777 25.4755 30.3805 25.6326C30.1669 25.7002 29.9781 25.6707 29.8004 25.4974C29.0987 24.8102 28.3869 24.1334 27.6769 23.4537C27.2782 23.072 26.8694 22.7017 26.478 22.3124C26.0765 21.9126 25.5756 22.0468 25.4191 22.5808C25.0323 23.8954 24.6925 25.2204 24.4927 26.5797C24.3813 27.3345 24.2791 28.0922 24.198 28.8509C24.129 29.4982 24.0839 30.1483 24.0489 30.7985C24.0176 31.3858 24.0111 31.975 24.0001 32.5632C23.9945 32.8621 24.3362 33.1363 24.6179 33.0506C25.3307 32.8336 26.0397 32.6032 26.7506 32.3814C27.7607 32.0664 28.7718 31.7551 29.782 31.4419C30.5011 31.2182 31.2203 30.9945 31.9385 30.7689C32.9929 30.4377 34.0463 30.1036 35.1016 29.7733C36.7296 29.2631 38.3586 28.7548 39.9875 28.2474C41.517 27.7715 43.0493 27.3012 44.5778 26.8224C45.6791 26.4779 46.7786 26.1266 47.8762 25.7696C48.3891 25.6031 48.4637 25.5041 48.4858 24.9634C48.5125 24.3161 48.5337 23.6688 48.5346 23.0216C48.5374 21.9907 48.3339 20.9921 48.0392 20.0127C47.6249 18.6372 46.9757 17.3816 46.0917 16.2746C45.2012 15.159 44.1589 14.2138 42.9286 13.498C41.8282 12.8573 40.6588 12.4271 39.424 12.1796C38.4783 11.9892 37.5169 11.9711 36.562 12.0292C35.446 12.0968 34.3557 12.3557 33.3179 12.7879C32.2663 13.2257 31.2829 13.7988 30.4008 14.5479C29.6411 15.1933 28.9587 15.91 28.3832 16.7372C28.1438 17.0808 27.8482 17.3855 27.6337 17.7424C27.5379 17.9023 27.5213 18.166 27.571 18.3535C27.6309 18.5791 27.8482 18.6676 28.0913 18.6667C29.8446 18.66 31.5941 18.6619 33.3446 18.6619Z" fill="white"/>
<path d="M67.7431 62.065C67.5728 61.8584 67.338 61.6814 67.0387 61.5339C66.7394 61.3863 66.4227 61.3121 66.0875 61.3121C65.628 61.3121 65.2624 61.4348 64.9889 61.6795C64.7154 61.9251 64.5792 62.2116 64.5792 62.5409C64.5792 62.8417 64.6786 63.1026 64.8775 63.3224C65.0755 63.5423 65.325 63.706 65.6243 63.8117L67.2183 64.2886C67.5995 64.4114 67.9116 64.6256 68.1547 64.9321C68.3969 65.2386 68.5185 65.6231 68.5185 66.0858C68.5185 66.6036 68.315 67.0529 67.907 67.4317C67.5 67.8106 66.9429 68 66.2357 68C65.663 68 65.162 67.862 64.7311 67.5859C64.3002 67.3099 63.9668 66.9577 63.7292 66.5284L64.232 66.1857C64.4484 66.5646 64.7412 66.8568 65.1105 67.0633C65.4788 67.2699 65.849 67.3727 66.221 67.3727C66.7882 67.3727 67.2155 67.2394 67.501 66.971C67.7873 66.7035 67.9301 66.3999 67.9301 66.0601C67.9301 65.7754 67.8463 65.527 67.6787 65.3119C67.5111 65.0977 67.2772 64.9483 66.9788 64.8645L65.4862 64.4047C65.0534 64.2543 64.697 64.0173 64.4189 63.6946C64.1408 63.371 64.0009 62.9845 64.0009 62.5324C64.0009 62.0307 64.1915 61.5976 64.5736 61.2331C64.9549 60.8685 65.4604 60.6857 66.0902 60.6857C66.57 60.6857 66.9954 60.7847 67.3665 60.9827C67.7376 61.1807 68.0396 61.4215 68.2717 61.7061L67.7431 62.065Z" fill="url(#paint4_linear_870_86)"/>
<path d="M80.0123 64.3381C80.0123 65.3528 79.6826 66.2162 79.0224 66.9291C78.3622 67.6421 77.5656 67.999 76.6319 67.999C75.6936 67.999 74.8943 67.6421 74.2341 66.9291C73.5738 66.2162 73.2442 65.3518 73.2442 64.3381C73.2442 63.33 73.5738 62.4686 74.2341 61.7556C74.8943 61.0427 75.6936 60.6857 76.6319 60.6857C77.5656 60.6857 78.3622 61.0427 79.0224 61.7556C79.6826 62.4686 80.0123 63.33 80.0123 64.3381ZM76.6319 61.3121C75.8529 61.3121 75.1908 61.6071 74.6438 62.1983C74.0969 62.7894 73.8234 63.5023 73.8234 64.3381C73.8234 65.1796 74.0969 65.8954 74.6438 66.4865C75.1908 67.0776 75.8529 67.3727 76.6319 67.3727C77.4054 67.3727 78.0656 67.0776 78.6126 66.4865C79.1596 65.8963 79.4322 65.1796 79.4322 64.3381C79.4322 63.5023 79.1587 62.7894 78.6126 62.1983C78.0656 61.6081 77.4054 61.3121 76.6319 61.3121Z" fill="url(#paint5_linear_870_86)"/>
<path d="M90.0456 66.4618L90.4784 66.8796C90.4628 66.8968 90.4471 66.9129 90.4324 66.9301C89.7721 67.643 88.9756 68 88.0419 68C87.1036 68 86.3043 67.643 85.6441 66.9301C84.9838 66.2171 84.6542 65.3528 84.6542 64.339C84.6542 63.331 84.9838 62.4695 85.6441 61.7566C86.3043 61.0436 87.1036 60.6867 88.0419 60.6867C88.9756 60.6867 89.7721 61.0436 90.4324 61.7566C90.4582 61.7842 90.4812 61.8099 90.5024 61.8318L90.0843 62.2668C90.064 62.2449 90.0429 62.222 90.0226 62.2002C89.4756 61.61 88.8154 61.314 88.0419 61.314C87.2629 61.314 86.6008 61.609 86.0538 62.2002C85.5069 62.7913 85.2334 63.5042 85.2334 64.34C85.2334 65.1815 85.5069 65.8973 86.0538 66.4884C86.6008 67.0795 87.2629 67.3746 88.0419 67.3746C88.8154 67.3746 89.4756 67.0795 90.0226 66.4884C90.0281 66.4808 90.0355 66.4732 90.0456 66.4618Z" fill="url(#paint6_linear_870_86)"/>
<path d="M96.0642 60.8942V67.7896H95.484V60.8942H96.0642Z" fill="url(#paint7_linear_870_86)"/>
<path d="M106.121 66.7454H101.852L101.403 67.7906H100.761L103.739 60.8951H104.235L107.221 67.7906H106.571L106.121 66.7454ZM105.851 66.1191L103.986 61.8146L102.121 66.1191H105.851Z" fill="url(#paint8_linear_870_86)"/>
<path d="M111.924 60.8942H112.504V67.1633H115.598V67.7906H111.923L111.924 60.8942Z" fill="url(#paint9_linear_870_86)"/>
<path d="M132.013 66.4618L132.446 66.8796C132.43 66.8968 132.415 66.9129 132.4 66.9301C131.74 67.643 130.943 68 130.01 68C129.071 68 128.271 67.643 127.612 66.9301C126.952 66.2171 126.622 65.3528 126.622 64.339C126.622 63.331 126.952 62.4695 127.612 61.7566C128.272 61.0436 129.071 60.6867 130.01 60.6867C130.943 60.6867 131.74 61.0436 132.4 61.7566C132.426 61.7842 132.449 61.8099 132.47 61.8318L132.052 62.2668C132.032 62.2449 132.011 62.222 131.99 62.2002C131.443 61.61 130.783 61.314 130.01 61.314C129.231 61.314 128.569 61.609 128.022 62.2002C127.475 62.7913 127.202 63.5042 127.202 64.34C127.202 65.1815 127.475 65.8973 128.022 66.4884C128.569 67.0795 129.231 67.3746 130.01 67.3746C130.783 67.3746 131.443 67.0795 131.99 66.4884C131.995 66.4808 132.003 66.4732 132.013 66.4618Z" fill="url(#paint10_linear_870_86)"/>
<path d="M137.452 60.8942H138.032V67.1633H141.127V67.7906H137.452V60.8942Z" fill="url(#paint11_linear_870_86)"/>
<path d="M145.381 65.2833V60.8951H145.961V65.2833C145.961 65.863 146.149 66.3561 146.526 66.7626C146.902 67.169 147.359 67.3727 147.895 67.3727C148.431 67.3727 148.888 67.169 149.264 66.7626C149.641 66.3561 149.829 65.863 149.829 65.2833V60.8951H150.409V65.2833C150.409 66.0353 150.164 66.6769 149.674 67.2061C149.184 67.7354 148.591 68 147.895 68C147.199 68 146.606 67.7354 146.116 67.2061C145.626 66.6759 145.381 66.0353 145.381 65.2833Z" fill="url(#paint12_linear_870_86)"/>
<path d="M155.631 60.8942H158.338C158.818 60.8942 159.228 61.0779 159.568 61.4463C159.909 61.8137 160.078 62.2573 160.078 62.7751C160.078 63.2929 159.908 63.7365 159.568 64.1039C159.511 64.1649 159.452 64.221 159.391 64.2715C159.525 64.3552 159.648 64.458 159.762 64.5808C160.102 64.9482 160.272 65.3918 160.272 65.9097C160.272 66.4275 160.101 66.8711 159.762 67.2385C159.421 67.6059 159.011 67.7896 158.531 67.7896H155.63L155.631 60.8942ZM156.219 61.5215V64.0287H158.339C158.658 64.0287 158.932 63.9059 159.158 63.6613C159.385 63.4157 159.499 63.1206 159.499 62.7751C159.499 62.4296 159.386 62.1345 159.158 61.8889C158.931 61.6433 158.658 61.5215 158.339 61.5215H156.219ZM156.219 64.656V67.1633H158.532C158.852 67.1633 159.125 67.0405 159.352 66.7959C159.578 66.5503 159.693 66.2552 159.693 65.9097C159.693 65.5641 159.579 65.269 159.352 65.0234C159.124 64.7779 158.852 64.656 158.532 64.656H156.219Z" fill="url(#paint13_linear_870_86)"/>
<path d="M67.7431 62.065C67.5728 61.8584 67.338 61.6814 67.0387 61.5339C66.7394 61.3863 66.4227 61.3121 66.0875 61.3121C65.628 61.3121 65.2624 61.4348 64.9889 61.6795C64.7154 61.9251 64.5792 62.2116 64.5792 62.5409C64.5792 62.8417 64.6786 63.1026 64.8775 63.3224C65.0755 63.5423 65.325 63.706 65.6243 63.8117L67.2183 64.2886C67.5995 64.4114 67.9116 64.6256 68.1547 64.9321C68.3969 65.2386 68.5185 65.6231 68.5185 66.0858C68.5185 66.6036 68.315 67.0529 67.907 67.4317C67.5 67.8106 66.9429 68 66.2357 68C65.663 68 65.162 67.862 64.7311 67.5859C64.3002 67.3099 63.9668 66.9577 63.7292 66.5284L64.232 66.1857C64.4484 66.5646 64.7412 66.8568 65.1105 67.0633C65.4788 67.2699 65.849 67.3727 66.221 67.3727C66.7882 67.3727 67.2155 67.2394 67.501 66.971C67.7873 66.7035 67.9301 66.3999 67.9301 66.0601C67.9301 65.7754 67.8463 65.527 67.6787 65.3119C67.5111 65.0977 67.2772 64.9483 66.9788 64.8645L65.4862 64.4047C65.0534 64.2543 64.697 64.0173 64.4189 63.6946C64.1408 63.371 64.0009 62.9845 64.0009 62.5324C64.0009 62.0307 64.1915 61.5976 64.5736 61.2331C64.9549 60.8685 65.4604 60.6857 66.0902 60.6857C66.57 60.6857 66.9954 60.7847 67.3665 60.9827C67.7376 61.1807 68.0396 61.4215 68.2717 61.7061L67.7431 62.065Z" fill="url(#paint14_linear_870_86)"/>
<path d="M80.0123 64.3381C80.0123 65.3528 79.6826 66.2162 79.0224 66.9291C78.3622 67.6421 77.5656 67.999 76.6319 67.999C75.6936 67.999 74.8943 67.6421 74.2341 66.9291C73.5738 66.2162 73.2442 65.3518 73.2442 64.3381C73.2442 63.33 73.5738 62.4686 74.2341 61.7556C74.8943 61.0427 75.6936 60.6857 76.6319 60.6857C77.5656 60.6857 78.3622 61.0427 79.0224 61.7556C79.6826 62.4686 80.0123 63.33 80.0123 64.3381ZM76.6319 61.3121C75.8529 61.3121 75.1908 61.6071 74.6438 62.1983C74.0969 62.7894 73.8234 63.5023 73.8234 64.3381C73.8234 65.1796 74.0969 65.8954 74.6438 66.4865C75.1908 67.0776 75.8529 67.3727 76.6319 67.3727C77.4054 67.3727 78.0656 67.0776 78.6126 66.4865C79.1596 65.8963 79.4322 65.1796 79.4322 64.3381C79.4322 63.5023 79.1587 62.7894 78.6126 62.1983C78.0656 61.6081 77.4054 61.3121 76.6319 61.3121Z" fill="url(#paint15_linear_870_86)"/>
<path d="M90.0456 66.4618L90.4784 66.8796C90.4628 66.8968 90.4471 66.9129 90.4324 66.9301C89.7721 67.643 88.9756 68 88.0419 68C87.1036 68 86.3043 67.643 85.6441 66.9301C84.9838 66.2171 84.6542 65.3528 84.6542 64.339C84.6542 63.331 84.9838 62.4695 85.6441 61.7566C86.3043 61.0436 87.1036 60.6867 88.0419 60.6867C88.9756 60.6867 89.7721 61.0436 90.4324 61.7566C90.4582 61.7842 90.4812 61.8099 90.5024 61.8318L90.0843 62.2668C90.064 62.2449 90.0429 62.222 90.0226 62.2002C89.4756 61.61 88.8154 61.314 88.0419 61.314C87.2629 61.314 86.6008 61.609 86.0538 62.2002C85.5069 62.7913 85.2334 63.5042 85.2334 64.34C85.2334 65.1815 85.5069 65.8973 86.0538 66.4884C86.6008 67.0795 87.2629 67.3746 88.0419 67.3746C88.8154 67.3746 89.4756 67.0795 90.0226 66.4884C90.0281 66.4808 90.0355 66.4732 90.0456 66.4618Z" fill="url(#paint16_linear_870_86)"/>
<path d="M96.0642 60.8942V67.7896H95.484V60.8942H96.0642Z" fill="url(#paint17_linear_870_86)"/>
<path d="M106.121 66.7454H101.852L101.403 67.7906H100.761L103.739 60.8951H104.235L107.221 67.7906H106.571L106.121 66.7454ZM105.851 66.1191L103.986 61.8146L102.121 66.1191H105.851Z" fill="url(#paint18_linear_870_86)"/>
<path d="M111.924 60.8942H112.504V67.1633H115.598V67.7906H111.923L111.924 60.8942Z" fill="url(#paint19_linear_870_86)"/>
<path d="M132.013 66.4618L132.446 66.8796C132.43 66.8968 132.415 66.9129 132.4 66.9301C131.74 67.643 130.943 68 130.01 68C129.071 68 128.271 67.643 127.612 66.9301C126.952 66.2171 126.622 65.3528 126.622 64.339C126.622 63.331 126.952 62.4695 127.612 61.7566C128.272 61.0436 129.071 60.6867 130.01 60.6867C130.943 60.6867 131.74 61.0436 132.4 61.7566C132.426 61.7842 132.449 61.8099 132.47 61.8318L132.052 62.2668C132.032 62.2449 132.011 62.222 131.99 62.2002C131.443 61.61 130.783 61.314 130.01 61.314C129.231 61.314 128.569 61.609 128.022 62.2002C127.475 62.7913 127.202 63.5042 127.202 64.34C127.202 65.1815 127.475 65.8973 128.022 66.4884C128.569 67.0795 129.231 67.3746 130.01 67.3746C130.783 67.3746 131.443 67.0795 131.99 66.4884C131.995 66.4808 132.003 66.4732 132.013 66.4618Z" fill="url(#paint20_linear_870_86)"/>
<path d="M137.452 60.8942H138.032V67.1633H141.127V67.7906H137.452V60.8942Z" fill="url(#paint21_linear_870_86)"/>
<path d="M145.381 65.2833V60.8951H145.961V65.2833C145.961 65.863 146.149 66.3561 146.526 66.7626C146.902 67.169 147.359 67.3727 147.895 67.3727C148.431 67.3727 148.888 67.169 149.264 66.7626C149.641 66.3561 149.829 65.863 149.829 65.2833V60.8951H150.409V65.2833C150.409 66.0353 150.164 66.6769 149.674 67.2061C149.184 67.7354 148.591 68 147.895 68C147.199 68 146.606 67.7354 146.116 67.2061C145.626 66.6759 145.381 66.0353 145.381 65.2833Z" fill="url(#paint22_linear_870_86)"/>
<path d="M155.631 60.8942H158.338C158.818 60.8942 159.228 61.0779 159.568 61.4463C159.909 61.8137 160.078 62.2573 160.078 62.7751C160.078 63.2929 159.908 63.7365 159.568 64.1039C159.511 64.1649 159.452 64.221 159.391 64.2715C159.525 64.3552 159.648 64.458 159.762 64.5808C160.102 64.9482 160.272 65.3918 160.272 65.9097C160.272 66.4275 160.101 66.8711 159.762 67.2385C159.421 67.6059 159.011 67.7896 158.531 67.7896H155.63L155.631 60.8942ZM156.219 61.5215V64.0287H158.339C158.658 64.0287 158.932 63.9059 159.158 63.6613C159.385 63.4157 159.499 63.1206 159.499 62.7751C159.499 62.4296 159.386 62.1345 159.158 61.8889C158.931 61.6433 158.658 61.5215 158.339 61.5215H156.219ZM156.219 64.656V67.1633H158.532C158.852 67.1633 159.125 67.0405 159.352 66.7959C159.578 66.5503 159.693 66.2552 159.693 65.9097C159.693 65.5641 159.579 65.269 159.352 65.0234C159.124 64.7779 158.852 64.656 158.532 64.656H156.219Z" fill="url(#paint23_linear_870_86)"/>
<path d="M67.7431 62.065C67.5728 61.8584 67.338 61.6814 67.0387 61.5339C66.7394 61.3863 66.4227 61.3121 66.0875 61.3121C65.628 61.3121 65.2624 61.4348 64.9889 61.6795C64.7154 61.9251 64.5792 62.2116 64.5792 62.5409C64.5792 62.8417 64.6786 63.1026 64.8775 63.3224C65.0755 63.5423 65.325 63.706 65.6243 63.8117L67.2183 64.2886C67.5995 64.4114 67.9116 64.6256 68.1547 64.9321C68.3969 65.2386 68.5185 65.6231 68.5185 66.0858C68.5185 66.6036 68.315 67.0529 67.907 67.4317C67.5 67.8106 66.9429 68 66.2357 68C65.663 68 65.162 67.862 64.7311 67.5859C64.3002 67.3099 63.9668 66.9577 63.7292 66.5284L64.232 66.1857C64.4484 66.5646 64.7412 66.8568 65.1105 67.0633C65.4788 67.2699 65.849 67.3727 66.221 67.3727C66.7882 67.3727 67.2155 67.2394 67.501 66.971C67.7873 66.7035 67.9301 66.3999 67.9301 66.0601C67.9301 65.7754 67.8463 65.527 67.6787 65.3119C67.5111 65.0977 67.2772 64.9483 66.9788 64.8645L65.4862 64.4047C65.0534 64.2543 64.697 64.0173 64.4189 63.6946C64.1408 63.371 64.0009 62.9845 64.0009 62.5324C64.0009 62.0307 64.1915 61.5976 64.5736 61.2331C64.9549 60.8685 65.4604 60.6857 66.0902 60.6857C66.57 60.6857 66.9954 60.7847 67.3665 60.9827C67.7376 61.1807 68.0396 61.4215 68.2717 61.7061L67.7431 62.065Z" fill="url(#paint24_linear_870_86)"/>
<path d="M80.0123 64.3381C80.0123 65.3528 79.6826 66.2162 79.0224 66.9291C78.3622 67.6421 77.5656 67.999 76.6319 67.999C75.6936 67.999 74.8943 67.6421 74.2341 66.9291C73.5738 66.2162 73.2442 65.3518 73.2442 64.3381C73.2442 63.33 73.5738 62.4686 74.2341 61.7556C74.8943 61.0427 75.6936 60.6857 76.6319 60.6857C77.5656 60.6857 78.3622 61.0427 79.0224 61.7556C79.6826 62.4686 80.0123 63.33 80.0123 64.3381ZM76.6319 61.3121C75.8529 61.3121 75.1908 61.6071 74.6438 62.1983C74.0969 62.7894 73.8234 63.5023 73.8234 64.3381C73.8234 65.1796 74.0969 65.8954 74.6438 66.4865C75.1908 67.0776 75.8529 67.3727 76.6319 67.3727C77.4054 67.3727 78.0656 67.0776 78.6126 66.4865C79.1596 65.8963 79.4322 65.1796 79.4322 64.3381C79.4322 63.5023 79.1587 62.7894 78.6126 62.1983C78.0656 61.6081 77.4054 61.3121 76.6319 61.3121Z" fill="url(#paint25_linear_870_86)"/>
<path d="M90.0456 66.4618L90.4784 66.8796C90.4628 66.8968 90.4471 66.9129 90.4324 66.9301C89.7721 67.643 88.9756 68 88.0419 68C87.1036 68 86.3043 67.643 85.6441 66.9301C84.9838 66.2171 84.6542 65.3528 84.6542 64.339C84.6542 63.331 84.9838 62.4695 85.6441 61.7566C86.3043 61.0436 87.1036 60.6867 88.0419 60.6867C88.9756 60.6867 89.7721 61.0436 90.4324 61.7566C90.4582 61.7842 90.4812 61.8099 90.5024 61.8318L90.0843 62.2668C90.064 62.2449 90.0429 62.222 90.0226 62.2002C89.4756 61.61 88.8154 61.314 88.0419 61.314C87.2629 61.314 86.6008 61.609 86.0538 62.2002C85.5069 62.7913 85.2334 63.5042 85.2334 64.34C85.2334 65.1815 85.5069 65.8973 86.0538 66.4884C86.6008 67.0795 87.2629 67.3746 88.0419 67.3746C88.8154 67.3746 89.4756 67.0795 90.0226 66.4884C90.0281 66.4808 90.0355 66.4732 90.0456 66.4618Z" fill="url(#paint26_linear_870_86)"/>
<path d="M96.0642 60.8942V67.7896H95.484V60.8942H96.0642Z" fill="url(#paint27_linear_870_86)"/>
<path d="M106.121 66.7454H101.852L101.403 67.7906H100.761L103.739 60.8951H104.235L107.221 67.7906H106.571L106.121 66.7454ZM105.851 66.1191L103.986 61.8146L102.121 66.1191H105.851Z" fill="url(#paint28_linear_870_86)"/>
<path d="M111.924 60.8942H112.504V67.1633H115.598V67.7906H111.923L111.924 60.8942Z" fill="url(#paint29_linear_870_86)"/>
<path d="M132.013 66.4618L132.446 66.8796C132.43 66.8968 132.415 66.9129 132.4 66.9301C131.74 67.643 130.943 68 130.01 68C129.071 68 128.271 67.643 127.612 66.9301C126.952 66.2171 126.622 65.3528 126.622 64.339C126.622 63.331 126.952 62.4695 127.612 61.7566C128.272 61.0436 129.071 60.6867 130.01 60.6867C130.943 60.6867 131.74 61.0436 132.4 61.7566C132.426 61.7842 132.449 61.8099 132.47 61.8318L132.052 62.2668C132.032 62.2449 132.011 62.222 131.99 62.2002C131.443 61.61 130.783 61.314 130.01 61.314C129.231 61.314 128.569 61.609 128.022 62.2002C127.475 62.7913 127.202 63.5042 127.202 64.34C127.202 65.1815 127.475 65.8973 128.022 66.4884C128.569 67.0795 129.231 67.3746 130.01 67.3746C130.783 67.3746 131.443 67.0795 131.99 66.4884C131.995 66.4808 132.003 66.4732 132.013 66.4618Z" fill="url(#paint30_linear_870_86)"/>
<path d="M137.452 60.8942H138.032V67.1633H141.127V67.7906H137.452V60.8942Z" fill="url(#paint31_linear_870_86)"/>
<path d="M145.381 65.2833V60.8951H145.961V65.2833C145.961 65.863 146.149 66.3561 146.526 66.7626C146.902 67.169 147.359 67.3727 147.895 67.3727C148.431 67.3727 148.888 67.169 149.264 66.7626C149.641 66.3561 149.829 65.863 149.829 65.2833V60.8951H150.409V65.2833C150.409 66.0353 150.164 66.6769 149.674 67.2061C149.184 67.7354 148.591 68 147.895 68C147.199 68 146.606 67.7354 146.116 67.2061C145.626 66.6759 145.381 66.0353 145.381 65.2833Z" fill="url(#paint32_linear_870_86)"/>
<path d="M155.631 60.8942H158.338C158.818 60.8942 159.228 61.0779 159.568 61.4463C159.909 61.8137 160.078 62.2573 160.078 62.7751C160.078 63.2929 159.908 63.7365 159.568 64.1039C159.511 64.1649 159.452 64.221 159.391 64.2715C159.525 64.3552 159.648 64.458 159.762 64.5808C160.102 64.9482 160.272 65.3918 160.272 65.9097C160.272 66.4275 160.101 66.8711 159.762 67.2385C159.421 67.6059 159.011 67.7896 158.531 67.7896H155.63L155.631 60.8942ZM156.219 61.5215V64.0287H158.339C158.658 64.0287 158.932 63.9059 159.158 63.6613C159.385 63.4157 159.499 63.1206 159.499 62.7751C159.499 62.4296 159.386 62.1345 159.158 61.8889C158.931 61.6433 158.658 61.5215 158.339 61.5215H156.219ZM156.219 64.656V67.1633H158.532C158.852 67.1633 159.125 67.0405 159.352 66.7959C159.578 66.5503 159.693 66.2552 159.693 65.9097C159.693 65.5641 159.579 65.269 159.352 65.0234C159.124 64.7779 158.852 64.656 158.532 64.656H156.219Z" fill="url(#paint33_linear_870_86)"/>
<path d="M40.8724 38.7039H41.5907C46.3311 38.7039 48.7041 36.1499 48.7041 31.0412C48.7041 30.2673 48.6488 29.5515 48.5402 28.8947C47.4775 29.2383 46.4103 29.5781 45.3651 29.9065C45.0447 30.0065 44.7224 30.1055 44.4029 30.2054C44.471 30.5091 44.5032 30.8289 44.5032 31.1621C44.5032 32.2672 44.1377 33.2134 43.4075 34.0044C42.6745 34.7935 41.7923 35.1885 40.7582 35.1885C35.3355 35.5988 29.9127 36.0091 24.4899 36.4193V50.4377L28.6521 48.6387V38.7039H35.9911L43.6727 48.6387L49.9527 50.4377L40.8724 38.7039Z" fill="url(#paint34_linear_870_86)"/>
<path d="M73.5968 23.3747L85.2877 50.4368L80.3695 48.6377L78.4017 44.141H64.6298L62.7007 48.6377L57.7448 50.4368L69.4356 23.3747H73.5968ZM66.1437 40.5039H76.8888L71.5158 28.1579L66.1437 40.5039Z" fill="url(#paint35_linear_870_86)"/>
<path d="M114.723 46.8396L116.388 50.4368H101.367C95.5153 50.4368 92.5899 47.2756 92.5899 40.9532V32.8593C92.5899 26.5369 95.5153 23.3757 101.367 23.3757H115.972L114.307 26.9728H102.2C98.5679 26.9728 96.7511 28.9356 96.7511 32.8593V40.9532C96.7511 44.8778 98.567 46.8396 102.2 46.8396H114.723Z" fill="url(#paint36_linear_870_86)"/>
<path d="M128.673 25.0072C128.673 25.0072 126.638 24.3666 126.188 24.2247C125.923 24.1419 125.659 24.0591 125.392 23.9763V48.6387L129.554 50.4377V25.2832C129.261 25.1919 128.967 25.1005 128.673 25.0072Z" fill="url(#paint37_linear_870_86)"/>
<path d="M160.993 25.1738L165.155 23.3747V50.3968H160.993L144.308 28.9765V48.5977L140.146 50.3968V23.3747H144.308L160.993 44.795V25.1738Z" fill="url(#paint38_linear_870_86)"/>
<path d="M195.8 38.7048L200 36.9057V50.4368H184.109C178.257 50.4368 175.332 47.2756 175.332 40.9532V32.8593C175.332 26.5369 178.257 23.3757 184.109 23.3757H199.545L197.88 26.9728H184.941C181.309 26.9728 179.492 28.9356 179.492 32.8593V40.9532C179.492 44.8778 181.308 46.8396 184.941 46.8396H195.799L195.8 38.7048Z" fill="url(#paint39_linear_870_86)"/>
<path d="M33.3446 18.6619C35.0786 18.6619 36.8125 18.6619 38.5464 18.6619C39.0344 18.6619 39.2131 18.8504 39.2131 19.3606C39.2131 20.2992 39.214 21.2368 39.2131 22.1753C39.2131 22.5494 39.0989 22.7112 38.7471 22.8293C37.4865 23.2538 36.2259 23.6755 34.9653 24.101C33.9321 24.4494 32.9008 24.8025 31.8676 25.149C31.3731 25.3146 30.8777 25.4755 30.3805 25.6326C30.1669 25.7002 29.9781 25.6707 29.8004 25.4974C29.0987 24.8102 28.3869 24.1334 27.6769 23.4537C27.2782 23.072 26.8694 22.7017 26.478 22.3124C26.0765 21.9126 25.5756 22.0468 25.4191 22.5808C25.0323 23.8954 24.6925 25.2204 24.4927 26.5797C24.3813 27.3345 24.2791 28.0922 24.198 28.8509C24.129 29.4982 24.0839 30.1483 24.0489 30.7985C24.0176 31.3858 24.0111 31.975 24.0001 32.5632C23.9945 32.8621 24.3362 33.1363 24.6179 33.0506C25.3307 32.8336 26.0397 32.6032 26.7506 32.3814C27.7607 32.0664 28.7718 31.7551 29.782 31.4419C30.5011 31.2182 31.2203 30.9945 31.9385 30.7689C32.9929 30.4377 34.0463 30.1036 35.1016 29.7733C36.7296 29.2631 38.3586 28.7548 39.9875 28.2474C41.517 27.7715 43.0493 27.3012 44.5778 26.8224C45.6791 26.4779 46.7786 26.1266 47.8762 25.7696C48.3891 25.6031 48.4637 25.5041 48.4858 24.9634C48.5125 24.3161 48.5337 23.6688 48.5346 23.0216C48.5374 21.9907 48.3339 20.9921 48.0392 20.0127C47.6249 18.6372 46.9757 17.3816 46.0917 16.2746C45.2012 15.159 44.1589 14.2138 42.9286 13.498C41.8282 12.8573 40.6588 12.4271 39.424 12.1796C38.4783 11.9892 37.5169 11.9711 36.562 12.0292C35.446 12.0968 34.3557 12.3557 33.3179 12.7879C32.2663 13.2257 31.2829 13.7988 30.4008 14.5479C29.6411 15.1933 28.9587 15.91 28.3832 16.7372C28.1438 17.0808 27.8482 17.3855 27.6337 17.7424C27.5379 17.9023 27.5213 18.166 27.571 18.3535C27.6309 18.5791 27.8482 18.6676 28.0913 18.6667C29.8446 18.66 31.5941 18.6619 33.3446 18.6619Z" fill="url(#paint40_linear_870_86)"/>
<defs>
<linearGradient id="paint0_linear_870_86" x1="24.0028" y1="39.9912" x2="200.002" y2="39.9912" gradientUnits="userSpaceOnUse">
<stop stop-color="#A86E70"/>
<stop offset="0.1652" stop-color="#BC8B80"/>
<stop offset="0.3413" stop-color="#DDBBAF"/>
<stop offset="0.4472" stop-color="#DBBDB3"/>
<stop offset="0.5905" stop-color="#CAA3A0"/>
<stop offset="0.7579" stop-color="#F2CAC3"/>
<stop offset="1" stop-color="#C19686"/>
</linearGradient>
<linearGradient id="paint1_linear_870_86" x1="200" y1="39.9912" x2="24.0015" y2="39.9912" gradientUnits="userSpaceOnUse">
<stop stop-color="#A86E70"/>
<stop offset="0.1652" stop-color="#BC8B80"/>
<stop offset="0.3413" stop-color="#DDBBAF"/>
<stop offset="0.4472" stop-color="#DBBDB3"/>
<stop offset="0.5905" stop-color="#CAA3A0"/>
<stop offset="0.7579" stop-color="#F2CAC3"/>
<stop offset="1" stop-color="#C19686"/>
</linearGradient>
<linearGradient id="paint2_linear_870_86" x1="24.0028" y1="39.9908" x2="952.56" y2="39.9908" gradientUnits="userSpaceOnUse">
<stop offset="0.1974" stop-color="#BB8A4F"/>
<stop offset="0.4423" stop-color="#E9B471"/>
<stop offset="0.6898" stop-color="#E9B471"/>
<stop offset="1" stop-color="#E8C66C"/>
</linearGradient>
<linearGradient id="paint3_linear_870_86" x1="-728.557" y1="39.9908" x2="200" y2="39.9908" gradientUnits="userSpaceOnUse">
<stop offset="0.1974" stop-color="#BB8A4F"/>
<stop offset="0.4423" stop-color="#E9B471"/>
<stop offset="0.6898" stop-color="#E9B471"/>
<stop offset="1" stop-color="#E8C66C"/>
</linearGradient>
<linearGradient id="paint4_linear_870_86" x1="2038.02" y1="122.438" x2="2015.35" y2="-474.622" gradientUnits="userSpaceOnUse">
<stop offset="0.1974" stop-color="#BB8A4F"/>
<stop offset="0.4423" stop-color="#E9B471"/>
<stop offset="0.6898" stop-color="#E9B471"/>
<stop offset="1" stop-color="#E8C66C"/>
</linearGradient>
<linearGradient id="paint5_linear_870_86" x1="1201.73" y1="122.453" x2="1169.73" y2="-473.828" gradientUnits="userSpaceOnUse">
<stop offset="0.1974" stop-color="#BB8A4F"/>
<stop offset="0.4423" stop-color="#E9B471"/>
<stop offset="0.6898" stop-color="#E9B471"/>
<stop offset="1" stop-color="#E8C66C"/>
</linearGradient>
<linearGradient id="paint6_linear_870_86" x1="1043.61" y1="122.445" x2="1015.93" y2="-474.27" gradientUnits="userSpaceOnUse">
<stop offset="0.1974" stop-color="#BB8A4F"/>
<stop offset="0.4423" stop-color="#E9B471"/>
<stop offset="0.6898" stop-color="#E9B471"/>
<stop offset="1" stop-color="#E8C66C"/>
</linearGradient>
<linearGradient id="paint7_linear_870_86" x1="7016.99" y1="127.453" x2="7013.9" y2="-506.77" gradientUnits="userSpaceOnUse">
<stop offset="0.1974" stop-color="#BB8A4F"/>
<stop offset="0.4423" stop-color="#E9B471"/>
<stop offset="0.6898" stop-color="#E9B471"/>
<stop offset="1" stop-color="#E8C66C"/>
</linearGradient>
<linearGradient id="paint8_linear_870_86" x1="508.238" y1="127.445" x2="473.881" y2="-504.926" gradientUnits="userSpaceOnUse">
<stop offset="0.1974" stop-color="#BB8A4F"/>
<stop offset="0.4423" stop-color="#E9B471"/>
<stop offset="0.6898" stop-color="#E9B471"/>
<stop offset="1" stop-color="#E8C66C"/>
</linearGradient>
<linearGradient id="paint9_linear_870_86" x1="340.621" y1="127.437" x2="321.04" y2="-506.109" gradientUnits="userSpaceOnUse">
<stop offset="0.1974" stop-color="#BB8A4F"/>
<stop offset="0.4423" stop-color="#E9B471"/>
<stop offset="0.6898" stop-color="#E9B471"/>
<stop offset="1" stop-color="#E8C66C"/>
</linearGradient>
<linearGradient id="paint10_linear_870_86" x1="-219.403" y1="122.445" x2="-247.078" y2="-474.27" gradientUnits="userSpaceOnUse">
<stop offset="0.1974" stop-color="#BB8A4F"/>
<stop offset="0.4423" stop-color="#E9B471"/>
<stop offset="0.6898" stop-color="#E9B471"/>
<stop offset="1" stop-color="#E8C66C"/>
</linearGradient>
<linearGradient id="paint11_linear_870_86" x1="-881.986" y1="127.437" x2="-901.566" y2="-506.109" gradientUnits="userSpaceOnUse">
<stop offset="0.1974" stop-color="#BB8A4F"/>
<stop offset="0.4423" stop-color="#E9B471"/>
<stop offset="0.6898" stop-color="#E9B471"/>
<stop offset="1" stop-color="#E8C66C"/>
</linearGradient>
<linearGradient id="paint12_linear_870_86" x1="-915.804" y1="124.043" x2="-941.023" y2="-490.467" gradientUnits="userSpaceOnUse">
<stop offset="0.1974" stop-color="#BB8A4F"/>
<stop offset="0.4423" stop-color="#E9B471"/>
<stop offset="0.6898" stop-color="#E9B471"/>
<stop offset="1" stop-color="#E8C66C"/>
</linearGradient>
<linearGradient id="paint13_linear_870_86" x1="-1382.51" y1="127.453" x2="-1407.23" y2="-505.82" gradientUnits="userSpaceOnUse">
<stop offset="0.1974" stop-color="#BB8A4F"/>
<stop offset="0.4423" stop-color="#E9B471"/>
<stop offset="0.6898" stop-color="#E9B471"/>
<stop offset="1" stop-color="#E8C66C"/>
</linearGradient>
<linearGradient id="paint14_linear_870_86" x1="2038.02" y1="122.438" x2="2015.35" y2="-474.622" gradientUnits="userSpaceOnUse">
<stop offset="0.1974" stop-color="#BB8A4F"/>
<stop offset="0.4423" stop-color="#E9B471"/>
<stop offset="0.6898" stop-color="#E9B471"/>
<stop offset="1" stop-color="#E8C66C"/>
</linearGradient>
<linearGradient id="paint15_linear_870_86" x1="1201.73" y1="122.453" x2="1169.73" y2="-473.828" gradientUnits="userSpaceOnUse">
<stop offset="0.1974" stop-color="#BB8A4F"/>
<stop offset="0.4423" stop-color="#E9B471"/>
<stop offset="0.6898" stop-color="#E9B471"/>
<stop offset="1" stop-color="#E8C66C"/>
</linearGradient>
<linearGradient id="paint16_linear_870_86" x1="1043.61" y1="122.445" x2="1015.93" y2="-474.27" gradientUnits="userSpaceOnUse">
<stop offset="0.1974" stop-color="#BB8A4F"/>
<stop offset="0.4423" stop-color="#E9B471"/>
<stop offset="0.6898" stop-color="#E9B471"/>
<stop offset="1" stop-color="#E8C66C"/>
</linearGradient>
<linearGradient id="paint17_linear_870_86" x1="7016.99" y1="127.453" x2="7013.9" y2="-506.77" gradientUnits="userSpaceOnUse">
<stop offset="0.1974" stop-color="#BB8A4F"/>
<stop offset="0.4423" stop-color="#E9B471"/>
<stop offset="0.6898" stop-color="#E9B471"/>
<stop offset="1" stop-color="#E8C66C"/>
</linearGradient>
<linearGradient id="paint18_linear_870_86" x1="508.238" y1="127.445" x2="473.881" y2="-504.926" gradientUnits="userSpaceOnUse">
<stop offset="0.1974" stop-color="#BB8A4F"/>
<stop offset="0.4423" stop-color="#E9B471"/>
<stop offset="0.6898" stop-color="#E9B471"/>
<stop offset="1" stop-color="#E8C66C"/>
</linearGradient>
<linearGradient id="paint19_linear_870_86" x1="340.621" y1="127.437" x2="321.04" y2="-506.109" gradientUnits="userSpaceOnUse">
<stop offset="0.1974" stop-color="#BB8A4F"/>
<stop offset="0.4423" stop-color="#E9B471"/>
<stop offset="0.6898" stop-color="#E9B471"/>
<stop offset="1" stop-color="#E8C66C"/>
</linearGradient>
<linearGradient id="paint20_linear_870_86" x1="-219.403" y1="122.445" x2="-247.078" y2="-474.27" gradientUnits="userSpaceOnUse">
<stop offset="0.1974" stop-color="#BB8A4F"/>
<stop offset="0.4423" stop-color="#E9B471"/>
<stop offset="0.6898" stop-color="#E9B471"/>
<stop offset="1" stop-color="#E8C66C"/>
</linearGradient>
<linearGradient id="paint21_linear_870_86" x1="-881.986" y1="127.437" x2="-901.566" y2="-506.109" gradientUnits="userSpaceOnUse">
<stop offset="0.1974" stop-color="#BB8A4F"/>
<stop offset="0.4423" stop-color="#E9B471"/>
<stop offset="0.6898" stop-color="#E9B471"/>
<stop offset="1" stop-color="#E8C66C"/>
</linearGradient>
<linearGradient id="paint22_linear_870_86" x1="-915.804" y1="124.043" x2="-941.023" y2="-490.467" gradientUnits="userSpaceOnUse">
<stop offset="0.1974" stop-color="#BB8A4F"/>
<stop offset="0.4423" stop-color="#E9B471"/>
<stop offset="0.6898" stop-color="#E9B471"/>
<stop offset="1" stop-color="#E8C66C"/>
</linearGradient>
<linearGradient id="paint23_linear_870_86" x1="-1382.51" y1="127.453" x2="-1407.23" y2="-505.82" gradientUnits="userSpaceOnUse">
<stop offset="0.1974" stop-color="#BB8A4F"/>
<stop offset="0.4423" stop-color="#E9B471"/>
<stop offset="0.6898" stop-color="#E9B471"/>
<stop offset="1" stop-color="#E8C66C"/>
</linearGradient>
<linearGradient id="paint24_linear_870_86" x1="2038.02" y1="122.438" x2="2015.35" y2="-474.622" gradientUnits="userSpaceOnUse">
<stop offset="0.1974" stop-color="#BB8A4F"/>
<stop offset="0.4423" stop-color="#E9B471"/>
<stop offset="0.6898" stop-color="#E9B471"/>
<stop offset="1" stop-color="#E8C66C"/>
</linearGradient>
<linearGradient id="paint25_linear_870_86" x1="1201.73" y1="122.453" x2="1169.73" y2="-473.828" gradientUnits="userSpaceOnUse">
<stop offset="0.1974" stop-color="#BB8A4F"/>
<stop offset="0.4423" stop-color="#E9B471"/>
<stop offset="0.6898" stop-color="#E9B471"/>
<stop offset="1" stop-color="#E8C66C"/>
</linearGradient>
<linearGradient id="paint26_linear_870_86" x1="1043.61" y1="122.445" x2="1015.93" y2="-474.27" gradientUnits="userSpaceOnUse">
<stop offset="0.1974" stop-color="#BB8A4F"/>
<stop offset="0.4423" stop-color="#E9B471"/>
<stop offset="0.6898" stop-color="#E9B471"/>
<stop offset="1" stop-color="#E8C66C"/>
</linearGradient>
<linearGradient id="paint27_linear_870_86" x1="7016.99" y1="127.453" x2="7013.9" y2="-506.77" gradientUnits="userSpaceOnUse">
<stop offset="0.1974" stop-color="#BB8A4F"/>
<stop offset="0.4423" stop-color="#E9B471"/>
<stop offset="0.6898" stop-color="#E9B471"/>
<stop offset="1" stop-color="#E8C66C"/>
</linearGradient>
<linearGradient id="paint28_linear_870_86" x1="508.238" y1="127.445" x2="473.881" y2="-504.926" gradientUnits="userSpaceOnUse">
<stop offset="0.1974" stop-color="#BB8A4F"/>
<stop offset="0.4423" stop-color="#E9B471"/>
<stop offset="0.6898" stop-color="#E9B471"/>
<stop offset="1" stop-color="#E8C66C"/>
</linearGradient>
<linearGradient id="paint29_linear_870_86" x1="340.621" y1="127.437" x2="321.04" y2="-506.109" gradientUnits="userSpaceOnUse">
<stop offset="0.1974" stop-color="#BB8A4F"/>
<stop offset="0.4423" stop-color="#E9B471"/>
<stop offset="0.6898" stop-color="#E9B471"/>
<stop offset="1" stop-color="#E8C66C"/>
</linearGradient>
<linearGradient id="paint30_linear_870_86" x1="-219.403" y1="122.445" x2="-247.078" y2="-474.27" gradientUnits="userSpaceOnUse">
<stop offset="0.1974" stop-color="#BB8A4F"/>
<stop offset="0.4423" stop-color="#E9B471"/>
<stop offset="0.6898" stop-color="#E9B471"/>
<stop offset="1" stop-color="#E8C66C"/>
</linearGradient>
<linearGradient id="paint31_linear_870_86" x1="-881.986" y1="127.437" x2="-901.566" y2="-506.109" gradientUnits="userSpaceOnUse">
<stop offset="0.1974" stop-color="#BB8A4F"/>
<stop offset="0.4423" stop-color="#E9B471"/>
<stop offset="0.6898" stop-color="#E9B471"/>
<stop offset="1" stop-color="#E8C66C"/>
</linearGradient>
<linearGradient id="paint32_linear_870_86" x1="-915.804" y1="124.043" x2="-941.023" y2="-490.467" gradientUnits="userSpaceOnUse">
<stop offset="0.1974" stop-color="#BB8A4F"/>
<stop offset="0.4423" stop-color="#E9B471"/>
<stop offset="0.6898" stop-color="#E9B471"/>
<stop offset="1" stop-color="#E8C66C"/>
</linearGradient>
<linearGradient id="paint33_linear_870_86" x1="-1382.51" y1="127.453" x2="-1407.23" y2="-505.82" gradientUnits="userSpaceOnUse">
<stop offset="0.1974" stop-color="#BB8A4F"/>
<stop offset="0.4423" stop-color="#E9B471"/>
<stop offset="0.6898" stop-color="#E9B471"/>
<stop offset="1" stop-color="#E8C66C"/>
</linearGradient>
<linearGradient id="paint34_linear_870_86" x1="674.037" y1="132.135" x2="660.187" y2="-69.9212" gradientUnits="userSpaceOnUse">
<stop offset="0.1974" stop-color="#BB8A4F"/>
<stop offset="0.4423" stop-color="#E9B471"/>
<stop offset="0.6898" stop-color="#E9B471"/>
<stop offset="1" stop-color="#E8C66C"/>
</linearGradient>
<linearGradient id="paint35_linear_870_86" x1="412.445" y1="119.057" x2="402.939" y2="-41.9864" gradientUnits="userSpaceOnUse">
<stop offset="0.1974" stop-color="#BB8A4F"/>
<stop offset="0.4423" stop-color="#E9B471"/>
<stop offset="0.6898" stop-color="#E9B471"/>
<stop offset="1" stop-color="#E8C66C"/>
</linearGradient>
<linearGradient id="paint36_linear_870_86" x1="215.872" y1="119.059" x2="207.651" y2="-42.1321" gradientUnits="userSpaceOnUse">
<stop offset="0.1974" stop-color="#BB8A4F"/>
<stop offset="0.4423" stop-color="#E9B471"/>
<stop offset="0.6898" stop-color="#E9B471"/>
<stop offset="1" stop-color="#E8C66C"/>
</linearGradient>
<linearGradient id="paint37_linear_870_86" x1="-265.982" y1="120.214" x2="-267.49" y2="-45.045" gradientUnits="userSpaceOnUse">
<stop offset="0.1974" stop-color="#BB8A4F"/>
<stop offset="0.4423" stop-color="#E9B471"/>
<stop offset="0.6898" stop-color="#E9B471"/>
<stop offset="1" stop-color="#E8C66C"/>
</linearGradient>
<linearGradient id="paint38_linear_870_86" x1="-128.096" y1="119.216" x2="-136.758" y2="-42.1632" gradientUnits="userSpaceOnUse">
<stop offset="0.1974" stop-color="#BB8A4F"/>
<stop offset="0.4423" stop-color="#E9B471"/>
<stop offset="0.6898" stop-color="#E9B471"/>
<stop offset="1" stop-color="#E8C66C"/>
</linearGradient>
<linearGradient id="paint39_linear_870_86" x1="-381.237" y1="119.059" x2="-389.757" y2="-42.1009" gradientUnits="userSpaceOnUse">
<stop offset="0.1974" stop-color="#BB8A4F"/>
<stop offset="0.4423" stop-color="#E9B471"/>
<stop offset="0.6898" stop-color="#E9B471"/>
<stop offset="1" stop-color="#E8C66C"/>
</linearGradient>
<linearGradient id="paint40_linear_870_86" x1="702.142" y1="179.763" x2="688.183" y2="-26.8921" gradientUnits="userSpaceOnUse">
<stop offset="0.1974" stop-color="#BB8A4F"/>
<stop offset="0.4423" stop-color="#E9B471"/>
<stop offset="0.6898" stop-color="#E9B471"/>
<stop offset="1" stop-color="#E8C66C"/>
</linearGradient>
</defs>
</svg>
