<svg width="33" height="900" viewBox="0 0 33 900" fill="none" xmlns="http://www.w3.org/2000/svg">
<path d="M33 266.208L33 0L-165.579 -8.68015e-06L-165.579 266.208L33 266.208Z" fill="white"/>
<path d="M33 16.6411L33 0L16.4524 -7.23321e-07L16.4524 16.6411L33 16.6411Z" fill="black"/>
<path d="M33 49.925L33 33.2839L16.4524 33.2839L16.4524 49.925L33 49.925Z" fill="black"/>
<path d="M33 83.2071L33 66.5661L16.4523 66.5661L16.4523 83.2071L33 83.2071Z" fill="black"/>
<path d="M33 116.491L33 99.85L16.4523 99.85L16.4523 116.491L33 116.491Z" fill="black"/>
<path d="M33 149.775L33 133.134L16.4523 133.134L16.4523 149.775L33 149.775Z" fill="black"/>
<path d="M33 183.057L33 166.416L16.4523 166.416L16.4523 183.057L33 183.057Z" fill="black"/>
<path d="M33 216.341L33 199.7L16.4523 199.7L16.4523 216.341L33 216.341Z" fill="black"/>
<path d="M33 249.625L33 232.984L16.4523 232.984L16.4523 249.625L33 249.625Z" fill="black"/>
<path d="M16.4524 33.2822L16.4524 16.6411L-0.0952957 16.6411L-0.0952964 33.2822L16.4524 33.2822Z" fill="black"/>
<path d="M16.4523 66.5661L16.4524 49.925L-0.0952971 49.925L-0.0952979 66.5661L16.4523 66.5661Z" fill="black"/>
<path d="M16.4523 99.85L16.4523 83.2089L-0.0952986 83.2089L-0.0952993 99.85L16.4523 99.85Z" fill="black"/>
<path d="M16.4523 133.132L16.4523 116.491L-0.0953 116.491L-0.0953008 133.132L16.4523 133.132Z" fill="black"/>
<path d="M16.4523 166.416L16.4523 149.775L-0.0953015 149.775L-0.0953022 166.416L16.4523 166.416Z" fill="black"/>
<path d="M16.4523 199.7L16.4523 183.059L-0.095303 183.059L-0.0953037 199.7L16.4523 199.7Z" fill="black"/>
<path d="M16.4523 232.982L16.4523 216.341L-0.0953044 216.341L-0.0953051 232.982L16.4523 232.982Z" fill="black"/>
<path d="M16.4523 266.266L16.4523 249.625L-0.0953059 249.625L-0.0953066 266.266L16.4523 266.266Z" fill="black"/>
<path d="M-0.0970314 16.6411L-0.0970306 -1.44672e-06L-16.6447 -2.17004e-06L-16.6447 16.6411L-0.0970314 16.6411Z" fill="black"/>
<path d="M-0.0970328 49.925L-0.0970321 33.2839L-16.6447 33.2839L-16.6447 49.925L-0.0970328 49.925Z" fill="black"/>
<path d="M-0.0970343 83.2071L-0.0970335 66.5661L-16.6447 66.5661L-16.6447 83.2071L-0.0970343 83.2071Z" fill="black"/>
<path d="M-0.0970357 116.491L-0.097035 99.85L-16.6447 99.85L-16.6447 116.491L-0.0970357 116.491Z" fill="black"/>
<path d="M-0.0970372 149.775L-0.0970365 133.134L-16.6447 133.134L-16.6447 149.775L-0.0970372 149.775Z" fill="black"/>
<path d="M-0.0970386 183.057L-0.0970379 166.416L-16.6447 166.416L-16.6447 183.057L-0.0970386 183.057Z" fill="black"/>
<path d="M-0.0970401 216.341L-0.0970394 199.7L-16.6447 199.7L-16.6447 216.341L-0.0970401 216.341Z" fill="black"/>
<path d="M-0.0970416 249.625L-0.0970408 232.984L-16.6447 232.984L-16.6447 249.625L-0.0970416 249.625Z" fill="black"/>
<path d="M-16.6447 33.2822L-16.6447 16.6411L-33.1923 16.6411L-33.1923 33.2822L-16.6447 33.2822Z" fill="black"/>
<path d="M-16.6447 66.5661L-16.6447 49.925L-33.1923 49.925L-33.1923 66.5661L-16.6447 66.5661Z" fill="black"/>
<path d="M-16.6447 99.85L-16.6447 83.2089L-33.1923 83.2089L-33.1923 99.85L-16.6447 99.85Z" fill="black"/>
<path d="M-16.6447 133.132L-16.6447 116.491L-33.1923 116.491L-33.1923 133.132L-16.6447 133.132Z" fill="black"/>
<path d="M-16.6447 166.416L-16.6447 149.775L-33.1923 149.775L-33.1923 166.416L-16.6447 166.416Z" fill="black"/>
<path d="M-16.6447 199.7L-16.6447 183.059L-33.1923 183.059L-33.1923 199.7L-16.6447 199.7Z" fill="black"/>
<path d="M-16.6447 232.982L-16.6447 216.341L-33.1923 216.341L-33.1923 232.982L-16.6447 232.982Z" fill="black"/>
<path d="M-16.6447 266.266L-16.6447 249.625L-33.1923 249.625L-33.1923 266.266L-16.6447 266.266Z" fill="black"/>
<path d="M-33.1923 16.6411L-33.1923 -2.89336e-06L-49.74 -3.61668e-06L-49.74 16.6411L-33.1923 16.6411Z" fill="black"/>
<path d="M-33.1923 49.925L-33.1923 33.2839L-49.74 33.2839L-49.74 49.925L-33.1923 49.925Z" fill="black"/>
<path d="M-33.1923 83.2071L-33.1923 66.5661L-49.74 66.5661L-49.74 83.2071L-33.1923 83.2071Z" fill="black"/>
<path d="M-33.1923 116.491L-33.1923 99.85L-49.74 99.85L-49.74 116.491L-33.1923 116.491Z" fill="black"/>
<path d="M-33.1923 149.775L-33.1923 133.134L-49.74 133.134L-49.74 149.775L-33.1923 149.775Z" fill="black"/>
<path d="M-33.1923 183.057L-33.1923 166.416L-49.74 166.416L-49.74 183.057L-33.1923 183.057Z" fill="black"/>
<path d="M-33.1923 216.341L-33.1923 199.7L-49.74 199.7L-49.74 216.341L-33.1923 216.341Z" fill="black"/>
<path d="M-33.1923 249.625L-33.1923 232.984L-49.74 232.984L-49.74 249.625L-33.1923 249.625Z" fill="black"/>
<path d="M-49.7417 33.2822L-49.7417 16.6411L-66.2894 16.6411L-66.2894 33.2822L-49.7417 33.2822Z" fill="black"/>
<path d="M-49.7417 66.5661L-49.7417 49.925L-66.2894 49.925L-66.2894 66.5661L-49.7417 66.5661Z" fill="black"/>
<path d="M-49.7417 99.85L-49.7417 83.2089L-66.2894 83.2089L-66.2894 99.85L-49.7417 99.85Z" fill="black"/>
<path d="M-49.7417 133.132L-49.7417 116.491L-66.2894 116.491L-66.2894 133.132L-49.7417 133.132Z" fill="black"/>
<path d="M-49.7417 166.416L-49.7417 149.775L-66.2894 149.775L-66.2894 166.416L-49.7417 166.416Z" fill="black"/>
<path d="M-49.7417 199.7L-49.7417 183.059L-66.2894 183.059L-66.2894 199.7L-49.7417 199.7Z" fill="black"/>
<path d="M-49.7417 232.982L-49.7417 216.341L-66.2894 216.341L-66.2894 232.982L-49.7417 232.982Z" fill="black"/>
<path d="M-49.7417 266.266L-49.7417 249.625L-66.2894 249.625L-66.2894 266.266L-49.7417 266.266Z" fill="black"/>
<path d="M-66.2894 16.6411L-66.2894 -4.34008e-06L-82.837 -5.0634e-06L-82.837 16.6411L-66.2894 16.6411Z" fill="black"/>
<path d="M-66.2894 49.925L-66.2894 33.2839L-82.837 33.2839L-82.837 49.925L-66.2894 49.925Z" fill="black"/>
<path d="M-66.2894 83.2071L-66.2894 66.5661L-82.837 66.5661L-82.837 83.2071L-66.2894 83.2071Z" fill="black"/>
<path d="M-66.2894 116.491L-66.2894 99.85L-82.837 99.85L-82.837 116.491L-66.2894 116.491Z" fill="black"/>
<path d="M-66.2894 149.775L-66.2894 133.134L-82.837 133.134L-82.837 149.775L-66.2894 149.775Z" fill="black"/>
<path d="M-66.2894 183.057L-66.2894 166.416L-82.837 166.416L-82.837 183.057L-66.2894 183.057Z" fill="black"/>
<path d="M-66.2894 216.341L-66.2894 199.7L-82.837 199.7L-82.837 216.341L-66.2894 216.341Z" fill="black"/>
<path d="M-66.2894 249.625L-66.2894 232.984L-82.837 232.984L-82.837 249.625L-66.2894 249.625Z" fill="black"/>
<path d="M-82.837 33.2822L-82.837 16.6411L-99.3846 16.6411L-99.3846 33.2822L-82.837 33.2822Z" fill="black"/>
<path d="M-82.837 66.5661L-82.837 49.925L-99.3846 49.925L-99.3846 66.5661L-82.837 66.5661Z" fill="black"/>
<path d="M-82.837 99.85L-82.837 83.2089L-99.3846 83.2089L-99.3846 99.85L-82.837 99.85Z" fill="black"/>
<path d="M-82.837 133.132L-82.837 116.491L-99.3846 116.491L-99.3846 133.132L-82.837 133.132Z" fill="black"/>
<path d="M-82.837 166.416L-82.837 149.775L-99.3847 149.775L-99.3847 166.416L-82.837 166.416Z" fill="black"/>
<path d="M-82.837 199.7L-82.837 183.059L-99.3847 183.059L-99.3847 199.7L-82.837 199.7Z" fill="black"/>
<path d="M-82.837 232.982L-82.837 216.341L-99.3847 216.341L-99.3847 232.982L-82.837 232.982Z" fill="black"/>
<path d="M-82.837 266.266L-82.837 249.625L-99.3847 249.625L-99.3847 266.266L-82.837 266.266Z" fill="black"/>
<path d="M-99.3864 16.6411L-99.3864 -5.78679e-06L-115.934 -6.51011e-06L-115.934 16.6411L-99.3864 16.6411Z" fill="black"/>
<path d="M-99.3864 49.925L-99.3864 33.2839L-115.934 33.2839L-115.934 49.925L-99.3864 49.925Z" fill="black"/>
<path d="M-99.3864 83.2071L-99.3864 66.5661L-115.934 66.5661L-115.934 83.2071L-99.3864 83.2071Z" fill="black"/>
<path d="M-99.3864 116.491L-99.3864 99.85L-115.934 99.85L-115.934 116.491L-99.3864 116.491Z" fill="black"/>
<path d="M-99.3864 149.775L-99.3864 133.134L-115.934 133.134L-115.934 149.775L-99.3864 149.775Z" fill="black"/>
<path d="M-99.3864 183.057L-99.3864 166.416L-115.934 166.416L-115.934 183.057L-99.3864 183.057Z" fill="black"/>
<path d="M-99.3864 216.341L-99.3864 199.7L-115.934 199.7L-115.934 216.341L-99.3864 216.341Z" fill="black"/>
<path d="M-99.3864 249.625L-99.3864 232.984L-115.934 232.984L-115.934 249.625L-99.3864 249.625Z" fill="black"/>
<path d="M-115.934 33.2822L-115.934 16.6411L-132.482 16.6411L-132.482 33.2822L-115.934 33.2822Z" fill="black"/>
<path d="M-115.934 66.5661L-115.934 49.925L-132.482 49.925L-132.482 66.5661L-115.934 66.5661Z" fill="black"/>
<path d="M-115.934 99.85L-115.934 83.2089L-132.482 83.2089L-132.482 99.85L-115.934 99.85Z" fill="black"/>
<path d="M-115.934 133.132L-115.934 116.491L-132.482 116.491L-132.482 133.132L-115.934 133.132Z" fill="black"/>
<path d="M-115.934 166.416L-115.934 149.775L-132.482 149.775L-132.482 166.416L-115.934 166.416Z" fill="black"/>
<path d="M-115.934 199.7L-115.934 183.059L-132.482 183.059L-132.482 199.7L-115.934 199.7Z" fill="black"/>
<path d="M-115.934 232.982L-115.934 216.341L-132.482 216.341L-132.482 232.982L-115.934 232.982Z" fill="black"/>
<path d="M-115.934 266.266L-115.934 249.625L-132.482 249.625L-132.482 266.266L-115.934 266.266Z" fill="black"/>
<path d="M-132.482 16.6411L-132.482 -7.23343e-06L-149.029 -7.95676e-06L-149.029 16.6411L-132.482 16.6411Z" fill="black"/>
<path d="M-132.482 49.925L-132.482 33.2839L-149.029 33.2839L-149.029 49.925L-132.482 49.925Z" fill="black"/>
<path d="M-132.482 83.2071L-132.482 66.5661L-149.029 66.5661L-149.029 83.2071L-132.482 83.2071Z" fill="black"/>
<path d="M-132.482 116.491L-132.482 99.85L-149.029 99.85L-149.029 116.491L-132.482 116.491Z" fill="black"/>
<path d="M-132.482 149.775L-132.482 133.134L-149.029 133.134L-149.029 149.775L-132.482 149.775Z" fill="black"/>
<path d="M-132.482 183.057L-132.482 166.416L-149.029 166.416L-149.029 183.057L-132.482 183.057Z" fill="black"/>
<path d="M-132.482 216.341L-132.482 199.7L-149.029 199.7L-149.029 216.341L-132.482 216.341Z" fill="black"/>
<path d="M-132.482 249.625L-132.482 232.984L-149.029 232.984L-149.029 249.625L-132.482 249.625Z" fill="black"/>
<path d="M-149.031 33.2821L-149.031 16.6411L-165.579 16.6411L-165.579 33.2821L-149.031 33.2821Z" fill="black"/>
<path d="M-149.031 66.5661L-149.031 49.925L-165.579 49.925L-165.579 66.5661L-149.031 66.5661Z" fill="black"/>
<path d="M-149.031 99.85L-149.031 83.2089L-165.579 83.2089L-165.579 99.85L-149.031 99.85Z" fill="black"/>
<path d="M-149.031 133.132L-149.031 116.491L-165.579 116.491L-165.579 133.132L-149.031 133.132Z" fill="black"/>
<path d="M-149.031 166.416L-149.031 149.775L-165.579 149.775L-165.579 166.416L-149.031 166.416Z" fill="black"/>
<path d="M-149.031 199.7L-149.031 183.059L-165.579 183.059L-165.579 199.7L-149.031 199.7Z" fill="black"/>
<path d="M-149.031 232.982L-149.031 216.341L-165.579 216.341L-165.579 232.982L-149.031 232.982Z" fill="black"/>
<path d="M-149.031 266.266L-149.031 249.625L-165.579 249.625L-165.579 266.266L-149.031 266.266Z" fill="black"/>
<path d="M33 532.474L33 266.266L-165.579 266.266L-165.579 532.474L33 532.474Z" fill="white"/>
<path d="M33 282.907L33 266.266L16.4523 266.266L16.4523 282.907L33 282.907Z" fill="black"/>
<path d="M33 316.191L33 299.55L16.4523 299.55L16.4523 316.191L33 316.191Z" fill="black"/>
<path d="M33 349.473L33 332.832L16.4523 332.832L16.4523 349.473L33 349.473Z" fill="black"/>
<path d="M33 382.757L33 366.116L16.4523 366.116L16.4523 382.757L33 382.757Z" fill="black"/>
<path d="M33 416.041L33 399.4L16.4523 399.4L16.4523 416.041L33 416.041Z" fill="black"/>
<path d="M33 449.323L33 432.682L16.4523 432.682L16.4523 449.323L33 449.323Z" fill="black"/>
<path d="M33 482.607L33 465.966L16.4523 465.966L16.4523 482.607L33 482.607Z" fill="black"/>
<path d="M33 515.891L33 499.25L16.4523 499.25L16.4523 515.891L33 515.891Z" fill="black"/>
<path d="M16.4523 299.548L16.4523 282.907L-0.0953073 282.907L-0.095308 299.548L16.4523 299.548Z" fill="black"/>
<path d="M16.4523 332.832L16.4523 316.191L-0.0953088 316.191L-0.0953095 332.832L16.4523 332.832Z" fill="black"/>
<path d="M16.4523 366.116L16.4523 349.475L-0.0953102 349.475L-0.095311 366.116L16.4523 366.116Z" fill="black"/>
<path d="M16.4523 399.398L16.4523 382.757L-0.0953117 382.757L-0.0953124 399.398L16.4523 399.398Z" fill="black"/>
<path d="M16.4523 432.682L16.4523 416.041L-0.0953131 416.041L-0.0953139 432.682L16.4523 432.682Z" fill="black"/>
<path d="M16.4523 465.966L16.4523 449.325L-0.0953146 449.325L-0.0953153 465.966L16.4523 465.966Z" fill="black"/>
<path d="M16.4523 499.248L16.4523 482.607L-0.095316 482.607L-0.0953168 499.248L16.4523 499.248Z" fill="black"/>
<path d="M16.4523 532.532L16.4523 515.891L-0.0953175 515.891L-0.0953182 532.532L16.4523 532.532Z" fill="black"/>
<path d="M-0.097043 282.907L-0.0970423 266.266L-16.6447 266.266L-16.6447 282.907L-0.097043 282.907Z" fill="black"/>
<path d="M-0.0970445 316.191L-0.0970437 299.55L-16.6447 299.55L-16.6447 316.191L-0.0970445 316.191Z" fill="black"/>
<path d="M-0.0970459 349.473L-0.0970452 332.832L-16.6447 332.832L-16.6447 349.473L-0.0970459 349.473Z" fill="black"/>
<path d="M-0.0970474 382.757L-0.0970466 366.116L-16.6447 366.116L-16.6447 382.757L-0.0970474 382.757Z" fill="black"/>
<path d="M-0.0970488 416.041L-0.0970481 399.4L-16.6447 399.4L-16.6447 416.041L-0.0970488 416.041Z" fill="black"/>
<path d="M-0.0970503 449.323L-0.0970496 432.682L-16.6447 432.682L-16.6447 449.323L-0.0970503 449.323Z" fill="black"/>
<path d="M-0.0970517 482.607L-0.097051 465.966L-16.6447 465.966L-16.6447 482.607L-0.0970517 482.607Z" fill="black"/>
<path d="M-0.0970532 515.891L-0.0970525 499.25L-16.6447 499.25L-16.6447 515.891L-0.0970532 515.891Z" fill="black"/>
<path d="M-16.6447 299.548L-16.6447 282.907L-33.1923 282.907L-33.1923 299.548L-16.6447 299.548Z" fill="black"/>
<path d="M-16.6447 332.832L-16.6447 316.191L-33.1923 316.191L-33.1923 332.832L-16.6447 332.832Z" fill="black"/>
<path d="M-16.6447 366.116L-16.6447 349.475L-33.1923 349.475L-33.1923 366.116L-16.6447 366.116Z" fill="black"/>
<path d="M-16.6447 399.398L-16.6447 382.757L-33.1923 382.757L-33.1923 399.398L-16.6447 399.398Z" fill="black"/>
<path d="M-16.6447 432.682L-16.6447 416.041L-33.1923 416.041L-33.1923 432.682L-16.6447 432.682Z" fill="black"/>
<path d="M-16.6447 465.966L-16.6447 449.325L-33.1923 449.325L-33.1923 465.966L-16.6447 465.966Z" fill="black"/>
<path d="M-16.6447 499.248L-16.6447 482.607L-33.1923 482.607L-33.1923 499.248L-16.6447 499.248Z" fill="black"/>
<path d="M-16.6447 532.532L-16.6447 515.891L-33.1923 515.891L-33.1923 532.532L-16.6447 532.532Z" fill="black"/>
<path d="M-33.1923 282.907L-33.1923 266.266L-49.74 266.266L-49.74 282.907L-33.1923 282.907Z" fill="black"/>
<path d="M-33.1923 316.191L-33.1923 299.55L-49.74 299.55L-49.74 316.191L-33.1923 316.191Z" fill="black"/>
<path d="M-33.1923 349.473L-33.1923 332.832L-49.74 332.832L-49.74 349.473L-33.1923 349.473Z" fill="black"/>
<path d="M-33.1923 382.757L-33.1923 366.116L-49.74 366.116L-49.74 382.757L-33.1923 382.757Z" fill="black"/>
<path d="M-33.1923 416.041L-33.1923 399.4L-49.74 399.4L-49.74 416.041L-33.1923 416.041Z" fill="black"/>
<path d="M-33.1923 449.323L-33.1923 432.682L-49.74 432.682L-49.74 449.323L-33.1923 449.323Z" fill="black"/>
<path d="M-33.1923 482.607L-33.1923 465.966L-49.74 465.966L-49.74 482.607L-33.1923 482.607Z" fill="black"/>
<path d="M-33.1923 515.891L-33.1923 499.25L-49.74 499.25L-49.74 515.891L-33.1923 515.891Z" fill="black"/>
<path d="M-49.7417 299.548L-49.7417 282.907L-66.2894 282.907L-66.2894 299.548L-49.7417 299.548Z" fill="black"/>
<path d="M-49.7417 332.832L-49.7417 316.191L-66.2894 316.191L-66.2894 332.832L-49.7417 332.832Z" fill="black"/>
<path d="M-49.7417 366.116L-49.7417 349.475L-66.2894 349.475L-66.2894 366.116L-49.7417 366.116Z" fill="black"/>
<path d="M-49.7417 399.398L-49.7417 382.757L-66.2894 382.757L-66.2894 399.398L-49.7417 399.398Z" fill="black"/>
<path d="M-49.7417 432.682L-49.7417 416.041L-66.2894 416.041L-66.2894 432.682L-49.7417 432.682Z" fill="black"/>
<path d="M-49.7417 465.966L-49.7417 449.325L-66.2894 449.325L-66.2894 465.966L-49.7417 465.966Z" fill="black"/>
<path d="M-49.7417 499.248L-49.7417 482.607L-66.2894 482.607L-66.2894 499.248L-49.7417 499.248Z" fill="black"/>
<path d="M-49.7417 532.532L-49.7417 515.891L-66.2894 515.891L-66.2894 532.532L-49.7417 532.532Z" fill="black"/>
<path d="M-66.2894 282.907L-66.2894 266.266L-82.837 266.266L-82.837 282.907L-66.2894 282.907Z" fill="black"/>
<path d="M-66.2894 316.191L-66.2894 299.55L-82.837 299.55L-82.837 316.191L-66.2894 316.191Z" fill="black"/>
<path d="M-66.2894 349.473L-66.2894 332.832L-82.837 332.832L-82.837 349.473L-66.2894 349.473Z" fill="black"/>
<path d="M-66.2894 382.757L-66.2894 366.116L-82.837 366.116L-82.837 382.757L-66.2894 382.757Z" fill="black"/>
<path d="M-66.2894 416.041L-66.2894 399.4L-82.837 399.4L-82.837 416.041L-66.2894 416.041Z" fill="black"/>
<path d="M-66.2894 449.323L-66.2894 432.682L-82.837 432.682L-82.837 449.323L-66.2894 449.323Z" fill="black"/>
<path d="M-66.2894 482.607L-66.2894 465.966L-82.837 465.966L-82.837 482.607L-66.2894 482.607Z" fill="black"/>
<path d="M-66.2894 515.891L-66.2894 499.25L-82.837 499.25L-82.837 515.891L-66.2894 515.891Z" fill="black"/>
<path d="M-82.837 299.548L-82.837 282.907L-99.3847 282.907L-99.3847 299.548L-82.837 299.548Z" fill="black"/>
<path d="M-82.837 332.832L-82.837 316.191L-99.3847 316.191L-99.3847 332.832L-82.837 332.832Z" fill="black"/>
<path d="M-82.837 366.116L-82.837 349.475L-99.3847 349.475L-99.3847 366.116L-82.837 366.116Z" fill="black"/>
<path d="M-82.837 399.398L-82.837 382.757L-99.3847 382.757L-99.3847 399.398L-82.837 399.398Z" fill="black"/>
<path d="M-82.837 432.682L-82.837 416.041L-99.3847 416.041L-99.3847 432.682L-82.837 432.682Z" fill="black"/>
<path d="M-82.837 465.966L-82.837 449.325L-99.3847 449.325L-99.3847 465.966L-82.837 465.966Z" fill="black"/>
<path d="M-82.837 499.248L-82.837 482.607L-99.3847 482.607L-99.3847 499.248L-82.837 499.248Z" fill="black"/>
<path d="M-82.837 532.532L-82.837 515.891L-99.3847 515.891L-99.3847 532.532L-82.837 532.532Z" fill="black"/>
<path d="M-99.3864 282.907L-99.3864 266.266L-115.934 266.266L-115.934 282.907L-99.3864 282.907Z" fill="black"/>
<path d="M-99.3864 316.191L-99.3864 299.55L-115.934 299.55L-115.934 316.191L-99.3864 316.191Z" fill="black"/>
<path d="M-99.3864 349.473L-99.3864 332.832L-115.934 332.832L-115.934 349.473L-99.3864 349.473Z" fill="black"/>
<path d="M-99.3864 382.757L-99.3864 366.116L-115.934 366.116L-115.934 382.757L-99.3864 382.757Z" fill="black"/>
<path d="M-99.3864 416.041L-99.3864 399.4L-115.934 399.4L-115.934 416.041L-99.3864 416.041Z" fill="black"/>
<path d="M-99.3864 449.323L-99.3864 432.682L-115.934 432.682L-115.934 449.323L-99.3864 449.323Z" fill="black"/>
<path d="M-99.3864 482.607L-99.3864 465.966L-115.934 465.966L-115.934 482.607L-99.3864 482.607Z" fill="black"/>
<path d="M-99.3864 515.891L-99.3864 499.25L-115.934 499.25L-115.934 515.891L-99.3864 515.891Z" fill="black"/>
<path d="M-115.934 299.548L-115.934 282.907L-132.482 282.907L-132.482 299.548L-115.934 299.548Z" fill="black"/>
<path d="M-115.934 332.832L-115.934 316.191L-132.482 316.191L-132.482 332.832L-115.934 332.832Z" fill="black"/>
<path d="M-115.934 366.116L-115.934 349.475L-132.482 349.475L-132.482 366.116L-115.934 366.116Z" fill="black"/>
<path d="M-115.934 399.398L-115.934 382.757L-132.482 382.757L-132.482 399.398L-115.934 399.398Z" fill="black"/>
<path d="M-115.934 432.682L-115.934 416.041L-132.482 416.041L-132.482 432.682L-115.934 432.682Z" fill="black"/>
<path d="M-115.934 465.966L-115.934 449.325L-132.482 449.325L-132.482 465.966L-115.934 465.966Z" fill="black"/>
<path d="M-115.934 499.248L-115.934 482.607L-132.482 482.607L-132.482 499.248L-115.934 499.248Z" fill="black"/>
<path d="M-115.934 532.532L-115.934 515.891L-132.482 515.891L-132.482 532.532L-115.934 532.532Z" fill="black"/>
<path d="M-132.482 282.907L-132.482 266.266L-149.029 266.266L-149.029 282.907L-132.482 282.907Z" fill="black"/>
<path d="M-132.482 316.191L-132.482 299.55L-149.029 299.55L-149.029 316.191L-132.482 316.191Z" fill="black"/>
<path d="M-132.482 349.473L-132.482 332.832L-149.029 332.832L-149.029 349.473L-132.482 349.473Z" fill="black"/>
<path d="M-132.482 382.757L-132.482 366.116L-149.029 366.116L-149.029 382.757L-132.482 382.757Z" fill="black"/>
<path d="M-132.482 416.041L-132.482 399.4L-149.029 399.4L-149.029 416.041L-132.482 416.041Z" fill="black"/>
<path d="M-132.482 449.323L-132.482 432.682L-149.029 432.682L-149.029 449.323L-132.482 449.323Z" fill="black"/>
<path d="M-132.482 482.607L-132.482 465.966L-149.029 465.966L-149.029 482.607L-132.482 482.607Z" fill="black"/>
<path d="M-132.482 515.891L-132.482 499.25L-149.029 499.25L-149.029 515.891L-132.482 515.891Z" fill="black"/>
<path d="M-149.031 299.548L-149.031 282.907L-165.579 282.907L-165.579 299.548L-149.031 299.548Z" fill="black"/>
<path d="M-149.031 332.832L-149.031 316.191L-165.579 316.191L-165.579 332.832L-149.031 332.832Z" fill="black"/>
<path d="M-149.031 366.116L-149.031 349.475L-165.579 349.475L-165.579 366.116L-149.031 366.116Z" fill="black"/>
<path d="M-149.031 399.398L-149.031 382.757L-165.579 382.757L-165.579 399.398L-149.031 399.398Z" fill="black"/>
<path d="M-149.031 432.682L-149.031 416.041L-165.579 416.041L-165.579 432.682L-149.031 432.682Z" fill="black"/>
<path d="M-149.031 465.966L-149.031 449.325L-165.579 449.325L-165.579 465.966L-149.031 465.966Z" fill="black"/>
<path d="M-149.031 499.248L-149.031 482.607L-165.579 482.607L-165.579 499.248L-149.031 499.248Z" fill="black"/>
<path d="M-149.031 532.532L-149.031 515.891L-165.579 515.891L-165.579 532.532L-149.031 532.532Z" fill="black"/>
<path d="M33 798.74L33 532.532L-165.579 532.532L-165.579 798.74L33 798.74Z" fill="white"/>
<path d="M33 549.173L33 532.532L16.4523 532.532L16.4523 549.173L33 549.173Z" fill="black"/>
<path d="M33 582.457L33 565.816L16.4523 565.816L16.4523 582.457L33 582.457Z" fill="black"/>
<path d="M33 615.739L33 599.098L16.4523 599.098L16.4523 615.739L33 615.739Z" fill="black"/>
<path d="M33 649.023L33 632.382L16.4523 632.382L16.4523 649.023L33 649.023Z" fill="black"/>
<path d="M33 682.307L33 665.666L16.4523 665.666L16.4523 682.307L33 682.307Z" fill="black"/>
<path d="M33 715.589L33 698.948L16.4523 698.948L16.4523 715.589L33 715.589Z" fill="black"/>
<path d="M33 748.873L33 732.232L16.4523 732.232L16.4523 748.873L33 748.873Z" fill="black"/>
<path d="M33 782.157L33 765.516L16.4523 765.516L16.4523 782.157L33 782.157Z" fill="black"/>
<path d="M16.4523 565.814L16.4523 549.173L-0.095319 549.173L-0.0953197 565.814L16.4523 565.814Z" fill="black"/>
<path d="M16.4523 599.098L16.4523 582.457L-0.0953204 582.457L-0.0953211 599.098L16.4523 599.098Z" fill="black"/>
<path d="M16.4523 632.382L16.4523 615.741L-0.0953219 615.741L-0.0953226 632.382L16.4523 632.382Z" fill="black"/>
<path d="M16.4523 665.664L16.4523 649.023L-0.0953233 649.023L-0.095324 665.664L16.4523 665.664Z" fill="black"/>
<path d="M16.4523 698.948L16.4523 682.307L-0.0953248 682.307L-0.0953255 698.948L16.4523 698.948Z" fill="black"/>
<path d="M16.4523 732.232L16.4523 715.591L-0.0953262 715.591L-0.095327 732.232L16.4523 732.232Z" fill="black"/>
<path d="M16.4523 765.514L16.4523 748.873L-0.0953277 748.873L-0.0953284 765.514L16.4523 765.514Z" fill="black"/>
<path d="M16.4523 798.798L16.4523 782.157L-0.0953291 782.157L-0.0953299 798.798L16.4523 798.798Z" fill="black"/>
<path d="M-0.0970546 549.173L-0.0970539 532.532L-16.6447 532.532L-16.6447 549.173L-0.0970546 549.173Z" fill="black"/>
<path d="M-0.0970561 582.457L-0.0970554 565.816L-16.6447 565.816L-16.6447 582.457L-0.0970561 582.457Z" fill="black"/>
<path d="M-0.0970576 615.739L-0.0970568 599.098L-16.6447 599.098L-16.6447 615.739L-0.0970576 615.739Z" fill="black"/>
<path d="M-0.097059 649.023L-0.0970583 632.382L-16.6447 632.382L-16.6447 649.023L-0.097059 649.023Z" fill="black"/>
<path d="M-0.0970605 682.307L-0.0970597 665.666L-16.6447 665.666L-16.6447 682.307L-0.0970605 682.307Z" fill="black"/>
<path d="M-0.0970619 715.589L-0.0970612 698.948L-16.6447 698.948L-16.6447 715.589L-0.0970619 715.589Z" fill="black"/>
<path d="M-0.0970634 748.873L-0.0970626 732.232L-16.6447 732.232L-16.6447 748.873L-0.0970634 748.873Z" fill="black"/>
<path d="M-0.0970648 782.157L-0.0970641 765.516L-16.6447 765.516L-16.6447 782.157L-0.0970648 782.157Z" fill="black"/>
<path d="M-16.6447 565.814L-16.6447 549.173L-33.1923 549.173L-33.1923 565.814L-16.6447 565.814Z" fill="black"/>
<path d="M-16.6447 599.098L-16.6447 582.457L-33.1923 582.457L-33.1923 599.098L-16.6447 599.098Z" fill="black"/>
<path d="M-16.6447 632.382L-16.6447 615.741L-33.1923 615.741L-33.1923 632.382L-16.6447 632.382Z" fill="black"/>
<path d="M-16.6447 665.664L-16.6447 649.023L-33.1924 649.023L-33.1924 665.664L-16.6447 665.664Z" fill="black"/>
<path d="M-16.6447 698.948L-16.6447 682.307L-33.1924 682.307L-33.1924 698.948L-16.6447 698.948Z" fill="black"/>
<path d="M-16.6447 732.232L-16.6447 715.591L-33.1924 715.591L-33.1924 732.232L-16.6447 732.232Z" fill="black"/>
<path d="M-16.6447 765.514L-16.6447 748.873L-33.1924 748.873L-33.1924 765.514L-16.6447 765.514Z" fill="black"/>
<path d="M-16.6447 798.798L-16.6447 782.157L-33.1924 782.157L-33.1924 798.798L-16.6447 798.798Z" fill="black"/>
<path d="M-33.1923 549.173L-33.1923 532.532L-49.74 532.532L-49.74 549.173L-33.1923 549.173Z" fill="black"/>
<path d="M-33.1923 582.457L-33.1923 565.816L-49.74 565.816L-49.74 582.457L-33.1923 582.457Z" fill="black"/>
<path d="M-33.1923 615.739L-33.1923 599.098L-49.74 599.098L-49.74 615.739L-33.1923 615.739Z" fill="black"/>
<path d="M-33.1924 649.023L-33.1923 632.382L-49.74 632.382L-49.74 649.023L-33.1924 649.023Z" fill="black"/>
<path d="M-33.1924 682.307L-33.1924 665.666L-49.74 665.666L-49.74 682.307L-33.1924 682.307Z" fill="black"/>
<path d="M-33.1924 715.589L-33.1924 698.948L-49.74 698.948L-49.74 715.589L-33.1924 715.589Z" fill="black"/>
<path d="M-33.1924 748.873L-33.1924 732.232L-49.74 732.232L-49.74 748.873L-33.1924 748.873Z" fill="black"/>
<path d="M-33.1924 782.157L-33.1924 765.516L-49.74 765.516L-49.74 782.157L-33.1924 782.157Z" fill="black"/>
<path d="M-49.7417 565.814L-49.7417 549.173L-66.2894 549.173L-66.2894 565.814L-49.7417 565.814Z" fill="black"/>
<path d="M-49.7417 599.098L-49.7417 582.457L-66.2894 582.457L-66.2894 599.098L-49.7417 599.098Z" fill="black"/>
<path d="M-49.7417 632.382L-49.7417 615.741L-66.2894 615.741L-66.2894 632.382L-49.7417 632.382Z" fill="black"/>
<path d="M-49.7417 665.664L-49.7417 649.023L-66.2894 649.023L-66.2894 665.664L-49.7417 665.664Z" fill="black"/>
<path d="M-49.7417 698.948L-49.7417 682.307L-66.2894 682.307L-66.2894 698.948L-49.7417 698.948Z" fill="black"/>
<path d="M-49.7417 732.232L-49.7417 715.591L-66.2894 715.591L-66.2894 732.232L-49.7417 732.232Z" fill="black"/>
<path d="M-49.7417 765.514L-49.7417 748.873L-66.2894 748.873L-66.2894 765.514L-49.7417 765.514Z" fill="black"/>
<path d="M-49.7417 798.798L-49.7417 782.157L-66.2894 782.157L-66.2894 798.798L-49.7417 798.798Z" fill="black"/>
<path d="M-66.2894 549.173L-66.2894 532.532L-82.837 532.532L-82.837 549.173L-66.2894 549.173Z" fill="black"/>
<path d="M-66.2894 582.457L-66.2894 565.816L-82.837 565.816L-82.837 582.457L-66.2894 582.457Z" fill="black"/>
<path d="M-66.2894 615.739L-66.2894 599.098L-82.837 599.098L-82.837 615.739L-66.2894 615.739Z" fill="black"/>
<path d="M-66.2894 649.023L-66.2894 632.382L-82.837 632.382L-82.837 649.023L-66.2894 649.023Z" fill="black"/>
<path d="M-66.2894 682.307L-66.2894 665.666L-82.837 665.666L-82.837 682.307L-66.2894 682.307Z" fill="black"/>
<path d="M-66.2894 715.589L-66.2894 698.948L-82.837 698.948L-82.837 715.589L-66.2894 715.589Z" fill="black"/>
<path d="M-66.2894 748.873L-66.2894 732.232L-82.837 732.232L-82.837 748.873L-66.2894 748.873Z" fill="black"/>
<path d="M-66.2894 782.157L-66.2894 765.516L-82.837 765.516L-82.837 782.157L-66.2894 782.157Z" fill="black"/>
<path d="M-82.837 565.814L-82.837 549.173L-99.3847 549.173L-99.3847 565.814L-82.837 565.814Z" fill="black"/>
<path d="M-82.837 599.098L-82.837 582.457L-99.3847 582.457L-99.3847 599.098L-82.837 599.098Z" fill="black"/>
<path d="M-82.837 632.382L-82.837 615.741L-99.3847 615.741L-99.3847 632.382L-82.837 632.382Z" fill="black"/>
<path d="M-82.837 665.664L-82.837 649.023L-99.3847 649.023L-99.3847 665.664L-82.837 665.664Z" fill="black"/>
<path d="M-82.837 698.948L-82.837 682.307L-99.3847 682.307L-99.3847 698.948L-82.837 698.948Z" fill="black"/>
<path d="M-82.837 732.232L-82.837 715.591L-99.3847 715.591L-99.3847 732.232L-82.837 732.232Z" fill="black"/>
<path d="M-82.837 765.514L-82.837 748.873L-99.3847 748.873L-99.3847 765.514L-82.837 765.514Z" fill="black"/>
<path d="M-82.837 798.798L-82.837 782.157L-99.3847 782.157L-99.3847 798.798L-82.837 798.798Z" fill="black"/>
<path d="M-99.3864 549.173L-99.3864 532.532L-115.934 532.532L-115.934 549.173L-99.3864 549.173Z" fill="black"/>
<path d="M-99.3864 582.457L-99.3864 565.816L-115.934 565.816L-115.934 582.457L-99.3864 582.457Z" fill="black"/>
<path d="M-99.3864 615.739L-99.3864 599.098L-115.934 599.098L-115.934 615.739L-99.3864 615.739Z" fill="black"/>
<path d="M-99.3864 649.023L-99.3864 632.382L-115.934 632.382L-115.934 649.023L-99.3864 649.023Z" fill="black"/>
<path d="M-99.3864 682.307L-99.3864 665.666L-115.934 665.666L-115.934 682.307L-99.3864 682.307Z" fill="black"/>
<path d="M-99.3864 715.589L-99.3864 698.948L-115.934 698.948L-115.934 715.589L-99.3864 715.589Z" fill="black"/>
<path d="M-99.3864 748.873L-99.3864 732.232L-115.934 732.232L-115.934 748.873L-99.3864 748.873Z" fill="black"/>
<path d="M-99.3864 782.157L-99.3864 765.516L-115.934 765.516L-115.934 782.157L-99.3864 782.157Z" fill="black"/>
<path d="M-115.934 565.814L-115.934 549.173L-132.482 549.173L-132.482 565.814L-115.934 565.814Z" fill="black"/>
<path d="M-115.934 599.098L-115.934 582.457L-132.482 582.457L-132.482 599.098L-115.934 599.098Z" fill="black"/>
<path d="M-115.934 632.382L-115.934 615.741L-132.482 615.741L-132.482 632.382L-115.934 632.382Z" fill="black"/>
<path d="M-115.934 665.664L-115.934 649.023L-132.482 649.023L-132.482 665.664L-115.934 665.664Z" fill="black"/>
<path d="M-115.934 698.948L-115.934 682.307L-132.482 682.307L-132.482 698.948L-115.934 698.948Z" fill="black"/>
<path d="M-115.934 732.232L-115.934 715.591L-132.482 715.591L-132.482 732.232L-115.934 732.232Z" fill="black"/>
<path d="M-115.934 765.514L-115.934 748.873L-132.482 748.873L-132.482 765.514L-115.934 765.514Z" fill="black"/>
<path d="M-115.934 798.798L-115.934 782.157L-132.482 782.157L-132.482 798.798L-115.934 798.798Z" fill="black"/>
<path d="M-132.482 549.173L-132.482 532.532L-149.029 532.532L-149.029 549.173L-132.482 549.173Z" fill="black"/>
<path d="M-132.482 582.457L-132.482 565.816L-149.029 565.816L-149.029 582.457L-132.482 582.457Z" fill="black"/>
<path d="M-132.482 615.739L-132.482 599.098L-149.029 599.098L-149.029 615.739L-132.482 615.739Z" fill="black"/>
<path d="M-132.482 649.023L-132.482 632.382L-149.029 632.382L-149.029 649.023L-132.482 649.023Z" fill="black"/>
<path d="M-132.482 682.307L-132.482 665.666L-149.029 665.666L-149.029 682.307L-132.482 682.307Z" fill="black"/>
<path d="M-132.482 715.589L-132.482 698.948L-149.029 698.948L-149.029 715.589L-132.482 715.589Z" fill="black"/>
<path d="M-132.482 748.873L-132.482 732.232L-149.029 732.232L-149.029 748.873L-132.482 748.873Z" fill="black"/>
<path d="M-132.482 782.157L-132.482 765.516L-149.029 765.516L-149.029 782.157L-132.482 782.157Z" fill="black"/>
<path d="M-149.031 565.814L-149.031 549.173L-165.579 549.173L-165.579 565.814L-149.031 565.814Z" fill="black"/>
<path d="M-149.031 599.098L-149.031 582.457L-165.579 582.457L-165.579 599.098L-149.031 599.098Z" fill="black"/>
<path d="M-149.031 632.382L-149.031 615.741L-165.579 615.741L-165.579 632.382L-149.031 632.382Z" fill="black"/>
<path d="M-149.031 665.664L-149.031 649.023L-165.579 649.023L-165.579 665.664L-149.031 665.664Z" fill="black"/>
<path d="M-149.031 698.948L-149.031 682.307L-165.579 682.307L-165.579 698.948L-149.031 698.948Z" fill="black"/>
<path d="M-149.031 732.232L-149.031 715.591L-165.579 715.591L-165.579 732.232L-149.031 732.232Z" fill="black"/>
<path d="M-149.031 765.514L-149.031 748.873L-165.579 748.873L-165.579 765.514L-149.031 765.514Z" fill="black"/>
<path d="M-149.031 798.798L-149.031 782.157L-165.579 782.157L-165.579 798.798L-149.031 798.798Z" fill="black"/>
<path d="M33 1064.42L33 798.215L-165.579 798.215L-165.579 1064.42L33 1064.42Z" fill="white"/>
<path d="M33 814.856L33 798.215L16.4523 798.215L16.4523 814.856L33 814.856Z" fill="black"/>
<path d="M33 848.14L33 831.499L16.4523 831.499L16.4523 848.14L33 848.14Z" fill="black"/>
<path d="M33 881.422L33 864.781L16.4523 864.781L16.4523 881.422L33 881.422Z" fill="black"/>
<path d="M33 914.706L33 898.065L16.4523 898.065L16.4523 914.706L33 914.706Z" fill="black"/>
<path d="M33 947.99L33 931.349L16.4523 931.349L16.4523 947.99L33 947.99Z" fill="black"/>
<path d="M33 981.272L33 964.631L16.4523 964.631L16.4523 981.272L33 981.272Z" fill="black"/>
<path d="M33 1014.56L33 997.915L16.4523 997.915L16.4523 1014.56L33 1014.56Z" fill="black"/>
<path d="M33 1047.84L33 1031.2L16.4523 1031.2L16.4523 1047.84L33 1047.84Z" fill="black"/>
<path d="M16.4523 831.497L16.4523 814.856L-0.0953306 814.856L-0.0953313 831.497L16.4523 831.497Z" fill="black"/>
<path d="M16.4523 864.781L16.4523 848.14L-0.095332 848.14L-0.0953328 864.781L16.4523 864.781Z" fill="black"/>
<path d="M16.4523 898.065L16.4523 881.424L-0.0953335 881.424L-0.0953342 898.065L16.4523 898.065Z" fill="black"/>
<path d="M16.4523 931.347L16.4523 914.706L-0.0953349 914.706L-0.0953357 931.347L16.4523 931.347Z" fill="black"/>
<path d="M16.4523 964.631L16.4523 947.99L-0.0953364 947.99L-0.0953371 964.631L16.4523 964.631Z" fill="black"/>
<path d="M16.4523 997.915L16.4523 981.274L-0.0953378 981.274L-0.0953386 997.915L16.4523 997.915Z" fill="black"/>
<path d="M16.4523 1031.2L16.4523 1014.56L-0.0953393 1014.56L-0.09534 1031.2L16.4523 1031.2Z" fill="black"/>
<path d="M16.4523 1064.48L16.4523 1047.84L-0.0953408 1047.84L-0.0953415 1064.48L16.4523 1064.48Z" fill="black"/>
<path d="M-0.0970663 814.856L-0.0970655 798.215L-16.6447 798.215L-16.6447 814.856L-0.0970663 814.856Z" fill="black"/>
<path d="M-0.0970677 848.14L-0.097067 831.499L-16.6447 831.499L-16.6447 848.14L-0.0970677 848.14Z" fill="black"/>
<path d="M-0.0970692 881.422L-0.0970684 864.781L-16.6447 864.781L-16.6447 881.422L-0.0970692 881.422Z" fill="black"/>
<path d="M-0.0970706 914.706L-0.0970699 898.065L-16.6447 898.065L-16.6447 914.706L-0.0970706 914.706Z" fill="black"/>
<path d="M-0.0970721 947.99L-0.0970714 931.349L-16.6447 931.349L-16.6447 947.99L-0.0970721 947.99Z" fill="black"/>
<path d="M-0.0970735 981.272L-0.0970728 964.631L-16.6447 964.631L-16.6447 981.272L-0.0970735 981.272Z" fill="black"/>
<path d="M-0.097075 1014.56L-0.0970743 997.915L-16.6447 997.915L-16.6447 1014.56L-0.097075 1014.56Z" fill="black"/>
<path d="M-0.0970764 1047.84L-0.0970757 1031.2L-16.6447 1031.2L-16.6447 1047.84L-0.0970764 1047.84Z" fill="black"/>
<path d="M-16.6447 831.497L-16.6447 814.856L-33.1924 814.856L-33.1924 831.497L-16.6447 831.497Z" fill="black"/>
<path d="M-16.6447 864.781L-16.6447 848.14L-33.1924 848.14L-33.1924 864.781L-16.6447 864.781Z" fill="black"/>
<path d="M-16.6447 898.065L-16.6447 881.424L-33.1924 881.424L-33.1924 898.065L-16.6447 898.065Z" fill="black"/>
<path d="M-16.6447 931.347L-16.6447 914.706L-33.1924 914.706L-33.1924 931.347L-16.6447 931.347Z" fill="black"/>
<path d="M-16.6447 964.631L-16.6447 947.99L-33.1924 947.99L-33.1924 964.631L-16.6447 964.631Z" fill="black"/>
<path d="M-16.6447 997.915L-16.6447 981.274L-33.1924 981.274L-33.1924 997.915L-16.6447 997.915Z" fill="black"/>
<path d="M-16.6447 1031.2L-16.6447 1014.56L-33.1924 1014.56L-33.1924 1031.2L-16.6447 1031.2Z" fill="black"/>
<path d="M-16.6447 1064.48L-16.6447 1047.84L-33.1924 1047.84L-33.1924 1064.48L-16.6447 1064.48Z" fill="black"/>
<path d="M-33.1924 814.856L-33.1924 798.215L-49.74 798.215L-49.74 814.856L-33.1924 814.856Z" fill="black"/>
<path d="M-33.1924 848.14L-33.1924 831.499L-49.74 831.499L-49.74 848.14L-33.1924 848.14Z" fill="black"/>
<path d="M-33.1924 881.422L-33.1924 864.781L-49.74 864.781L-49.74 881.422L-33.1924 881.422Z" fill="black"/>
<path d="M-33.1924 914.706L-33.1924 898.065L-49.74 898.065L-49.74 914.706L-33.1924 914.706Z" fill="black"/>
<path d="M-33.1924 947.99L-33.1924 931.349L-49.74 931.349L-49.74 947.99L-33.1924 947.99Z" fill="black"/>
<path d="M-33.1924 981.272L-33.1924 964.631L-49.74 964.631L-49.74 981.272L-33.1924 981.272Z" fill="black"/>
<path d="M-33.1924 1014.56L-33.1924 997.915L-49.74 997.915L-49.74 1014.56L-33.1924 1014.56Z" fill="black"/>
<path d="M-33.1924 1047.84L-33.1924 1031.2L-49.74 1031.2L-49.74 1047.84L-33.1924 1047.84Z" fill="black"/>
<path d="M-49.7418 831.497L-49.7418 814.856L-66.2894 814.856L-66.2894 831.497L-49.7418 831.497Z" fill="black"/>
<path d="M-49.7418 864.781L-49.7418 848.14L-66.2894 848.14L-66.2894 864.781L-49.7418 864.781Z" fill="black"/>
<path d="M-49.7418 898.065L-49.7418 881.424L-66.2894 881.424L-66.2894 898.065L-49.7418 898.065Z" fill="black"/>
<path d="M-49.7418 931.347L-49.7418 914.706L-66.2894 914.706L-66.2894 931.347L-49.7418 931.347Z" fill="black"/>
<path d="M-49.7418 964.631L-49.7418 947.99L-66.2894 947.99L-66.2894 964.631L-49.7418 964.631Z" fill="black"/>
<path d="M-49.7418 997.915L-49.7418 981.274L-66.2894 981.274L-66.2894 997.915L-49.7418 997.915Z" fill="black"/>
<path d="M-49.7418 1031.2L-49.7418 1014.56L-66.2894 1014.56L-66.2894 1031.2L-49.7418 1031.2Z" fill="black"/>
<path d="M-49.7418 1064.48L-49.7418 1047.84L-66.2894 1047.84L-66.2894 1064.48L-49.7418 1064.48Z" fill="black"/>
<path d="M-66.2894 814.856L-66.2894 798.215L-82.837 798.215L-82.837 814.856L-66.2894 814.856Z" fill="black"/>
<path d="M-66.2894 848.14L-66.2894 831.499L-82.837 831.499L-82.8371 848.14L-66.2894 848.14Z" fill="black"/>
<path d="M-66.2894 881.422L-66.2894 864.781L-82.8371 864.781L-82.8371 881.422L-66.2894 881.422Z" fill="black"/>
<path d="M-66.2894 914.706L-66.2894 898.065L-82.8371 898.065L-82.8371 914.706L-66.2894 914.706Z" fill="black"/>
<path d="M-66.2894 947.99L-66.2894 931.349L-82.8371 931.349L-82.8371 947.99L-66.2894 947.99Z" fill="black"/>
<path d="M-66.2894 981.272L-66.2894 964.631L-82.8371 964.631L-82.8371 981.272L-66.2894 981.272Z" fill="black"/>
<path d="M-66.2894 1014.56L-66.2894 997.915L-82.8371 997.915L-82.8371 1014.56L-66.2894 1014.56Z" fill="black"/>
<path d="M-66.2894 1047.84L-66.2894 1031.2L-82.8371 1031.2L-82.8371 1047.84L-66.2894 1047.84Z" fill="black"/>
<path d="M-82.837 831.497L-82.837 814.856L-99.3847 814.856L-99.3847 831.497L-82.837 831.497Z" fill="black"/>
<path d="M-82.8371 864.781L-82.8371 848.14L-99.3847 848.14L-99.3847 864.781L-82.8371 864.781Z" fill="black"/>
<path d="M-82.8371 898.065L-82.8371 881.424L-99.3847 881.424L-99.3847 898.065L-82.8371 898.065Z" fill="black"/>
<path d="M-82.8371 931.347L-82.8371 914.706L-99.3847 914.706L-99.3847 931.347L-82.8371 931.347Z" fill="black"/>
<path d="M-82.8371 964.631L-82.8371 947.99L-99.3847 947.99L-99.3847 964.631L-82.8371 964.631Z" fill="black"/>
<path d="M-82.8371 997.915L-82.8371 981.274L-99.3847 981.274L-99.3847 997.915L-82.8371 997.915Z" fill="black"/>
<path d="M-82.8371 1031.2L-82.8371 1014.56L-99.3847 1014.56L-99.3847 1031.2L-82.8371 1031.2Z" fill="black"/>
<path d="M-82.8371 1064.48L-82.8371 1047.84L-99.3847 1047.84L-99.3847 1064.48L-82.8371 1064.48Z" fill="black"/>
<path d="M-99.3864 814.856L-99.3864 798.215L-115.934 798.215L-115.934 814.856L-99.3864 814.856Z" fill="black"/>
<path d="M-99.3864 848.14L-99.3864 831.499L-115.934 831.499L-115.934 848.14L-99.3864 848.14Z" fill="black"/>
<path d="M-99.3864 881.422L-99.3864 864.781L-115.934 864.781L-115.934 881.422L-99.3864 881.422Z" fill="black"/>
<path d="M-99.3864 914.706L-99.3864 898.065L-115.934 898.065L-115.934 914.706L-99.3864 914.706Z" fill="black"/>
<path d="M-99.3864 947.99L-99.3864 931.349L-115.934 931.349L-115.934 947.99L-99.3864 947.99Z" fill="black"/>
<path d="M-99.3864 981.272L-99.3864 964.631L-115.934 964.631L-115.934 981.272L-99.3864 981.272Z" fill="black"/>
<path d="M-99.3864 1014.56L-99.3864 997.915L-115.934 997.915L-115.934 1014.56L-99.3864 1014.56Z" fill="black"/>
<path d="M-99.3864 1047.84L-99.3864 1031.2L-115.934 1031.2L-115.934 1047.84L-99.3864 1047.84Z" fill="black"/>
<path d="M-115.934 831.497L-115.934 814.856L-132.482 814.856L-132.482 831.497L-115.934 831.497Z" fill="black"/>
<path d="M-115.934 864.781L-115.934 848.14L-132.482 848.14L-132.482 864.781L-115.934 864.781Z" fill="black"/>
<path d="M-115.934 898.065L-115.934 881.424L-132.482 881.424L-132.482 898.065L-115.934 898.065Z" fill="black"/>
<path d="M-115.934 931.347L-115.934 914.706L-132.482 914.706L-132.482 931.347L-115.934 931.347Z" fill="black"/>
<path d="M-115.934 964.631L-115.934 947.99L-132.482 947.99L-132.482 964.631L-115.934 964.631Z" fill="black"/>
<path d="M-115.934 997.915L-115.934 981.274L-132.482 981.274L-132.482 997.915L-115.934 997.915Z" fill="black"/>
<path d="M-115.934 1031.2L-115.934 1014.56L-132.482 1014.56L-132.482 1031.2L-115.934 1031.2Z" fill="black"/>
<path d="M-115.934 1064.48L-115.934 1047.84L-132.482 1047.84L-132.482 1064.48L-115.934 1064.48Z" fill="black"/>
<path d="M-132.482 814.856L-132.482 798.215L-149.029 798.215L-149.029 814.856L-132.482 814.856Z" fill="black"/>
<path d="M-132.482 848.14L-132.482 831.499L-149.029 831.499L-149.029 848.14L-132.482 848.14Z" fill="black"/>
<path d="M-132.482 881.422L-132.482 864.781L-149.029 864.781L-149.029 881.422L-132.482 881.422Z" fill="black"/>
<path d="M-132.482 914.706L-132.482 898.065L-149.029 898.065L-149.029 914.706L-132.482 914.706Z" fill="black"/>
<path d="M-132.482 947.99L-132.482 931.349L-149.029 931.349L-149.029 947.99L-132.482 947.99Z" fill="black"/>
<path d="M-132.482 981.272L-132.482 964.631L-149.029 964.631L-149.029 981.272L-132.482 981.272Z" fill="black"/>
<path d="M-132.482 1014.56L-132.482 997.915L-149.029 997.915L-149.029 1014.56L-132.482 1014.56Z" fill="black"/>
<path d="M-132.482 1047.84L-132.482 1031.2L-149.029 1031.2L-149.029 1047.84L-132.482 1047.84Z" fill="black"/>
<path d="M-149.031 831.497L-149.031 814.856L-165.579 814.856L-165.579 831.497L-149.031 831.497Z" fill="black"/>
<path d="M-149.031 864.781L-149.031 848.14L-165.579 848.14L-165.579 864.781L-149.031 864.781Z" fill="black"/>
<path d="M-149.031 898.065L-149.031 881.424L-165.579 881.424L-165.579 898.065L-149.031 898.065Z" fill="black"/>
<path d="M-149.031 931.347L-149.031 914.706L-165.579 914.706L-165.579 931.347L-149.031 931.347Z" fill="black"/>
<path d="M-149.031 964.631L-149.031 947.99L-165.579 947.99L-165.579 964.631L-149.031 964.631Z" fill="black"/>
<path d="M-149.031 997.915L-149.031 981.274L-165.579 981.274L-165.579 997.915L-149.031 997.915Z" fill="black"/>
<path d="M-149.031 1031.2L-149.031 1014.56L-165.579 1014.56L-165.579 1031.2L-149.031 1031.2Z" fill="black"/>
<path d="M-149.031 1064.48L-149.031 1047.84L-165.579 1047.84L-165.579 1064.48L-149.031 1064.48Z" fill="black"/>
</svg>
